<svg width="121" height="41" viewBox="0 0 121 41" fill="none" xmlns="http://www.w3.org/2000/svg">
<path d="M1.90756 29.4905H8.16164C8.31607 29.4905 8.63853 29.4859 9.12905 29.4769C9.62865 29.4678 10.101 29.436 10.5461 29.3815C12.1085 29.1816 13.4256 28.6321 14.4975 27.7328C15.5693 26.8244 16.3823 25.6708 16.9364 24.2719C17.4905 22.8731 17.7676 21.3425 17.7676 19.6802C17.7676 18.0179 17.4905 16.4873 16.9364 15.0884C16.3823 13.6895 15.5693 12.5359 14.4975 11.6275C13.4256 10.7192 12.1085 10.1696 10.5461 9.97884C10.0919 9.92434 9.61957 9.89254 9.12905 9.88346C8.64762 9.87438 8.32515 9.86983 8.16164 9.86983H1.90756V29.4905ZM5.2458 26.3975V12.9628H8.16164C8.43415 12.9628 8.77933 12.9719 9.19718 12.9901C9.61502 12.9991 9.99199 13.04 10.3281 13.1127C11.2365 13.2853 11.9813 13.6895 12.5627 14.3254C13.144 14.9612 13.5755 15.7469 13.8571 16.6826C14.1478 17.6091 14.2931 18.6083 14.2931 19.6802C14.2931 20.7066 14.1568 21.6876 13.8843 22.6233C13.6118 23.5589 13.1803 24.3537 12.5899 25.0077C12.0086 25.6526 11.2546 26.0659 10.3281 26.2476C9.99199 26.3112 9.61502 26.3521 9.19718 26.3703C8.77933 26.3884 8.43415 26.3975 8.16164 26.3975H5.2458ZM20.9885 29.4905H24.2859V22.0101C24.2859 21.1562 24.4403 20.3978 24.7491 19.7347C25.0671 19.0716 25.5621 18.5583 26.2343 18.195C26.6885 17.9316 27.1972 17.7771 27.7604 17.7317C28.3235 17.6772 28.8277 17.7136 29.2728 17.8407V14.775C28.6097 14.6751 27.9284 14.6887 27.229 14.8159C26.5295 14.934 25.9073 15.1792 25.3623 15.5516C25.0534 15.7424 24.7764 15.974 24.5311 16.2465C24.2859 16.51 24.0724 16.8052 23.8907 17.1322V14.775H20.9885V29.4905ZM35.6418 29.8992C36.8136 29.8992 37.8083 29.7085 38.6258 29.327C39.4524 28.9364 40.1791 28.3323 40.8059 27.5148V29.4905H43.6808V20.4568C43.6808 19.821 43.6536 19.2351 43.5991 18.6991C43.5446 18.1541 43.3856 17.6227 43.1222 17.1049C42.6408 16.133 41.9005 15.4336 40.9013 15.0066C39.9111 14.5797 38.7621 14.3662 37.454 14.3662C35.7281 14.3662 34.352 14.7432 33.3255 15.4971C32.2991 16.2511 31.6042 17.2503 31.2408 18.4947L34.2384 19.4349C34.4837 18.681 34.9151 18.1496 35.5328 17.8407C36.1505 17.5319 36.7909 17.3775 37.454 17.3775C38.4532 17.3775 39.189 17.5818 39.6613 17.9906C40.1337 18.3903 40.4017 19.0125 40.4652 19.8573C39.1754 20.048 37.9763 20.2343 36.8681 20.4159C35.769 20.5885 34.8334 20.802 34.0613 21.0563C32.8986 21.456 32.0493 22.0237 31.5133 22.7595C30.9774 23.4862 30.7094 24.3855 30.7094 25.4573C30.7094 26.2658 30.8956 27.0061 31.2681 27.6783C31.6496 28.3505 32.2082 28.891 32.944 29.2997C33.6798 29.6994 34.579 29.8992 35.6418 29.8992ZM36.2959 27.2832C35.5237 27.2832 34.9333 27.106 34.5245 26.7518C34.1249 26.3975 33.925 25.9524 33.925 25.4165C33.925 24.935 34.0794 24.5444 34.3883 24.2447C34.7062 23.9449 35.1468 23.6906 35.71 23.4817C36.2277 23.3091 36.85 23.1592 37.5766 23.032C38.3033 22.8958 39.2526 22.7368 40.4244 22.5551C40.4153 22.9003 40.3926 23.2864 40.3562 23.7133C40.3199 24.1311 40.2336 24.5081 40.0974 24.8442C39.9883 25.1803 39.7749 25.5391 39.457 25.9206C39.1481 26.3021 38.7303 26.6246 38.2034 26.888C37.6766 27.1514 37.0407 27.2832 36.2959 27.2832ZM47.2009 29.4905H50.5528V22.4052L56.1801 29.4905H60.5266L54.327 22.1327L60.0361 14.775H55.9348L50.5528 21.8602V9.86983H47.2281L47.2009 29.4905ZM78.2307 29.4905H81.5553V21.9284C81.5553 20.7384 81.7234 19.821 82.0595 19.176C82.4046 18.522 82.8407 18.0724 83.3675 17.8271C83.9034 17.5728 84.4485 17.4456 85.0026 17.4456C85.7838 17.4456 86.406 17.6182 86.8692 17.9633C87.3325 18.2994 87.6731 18.7309 87.8912 19.2578C88.1182 19.7755 88.2636 20.316 88.3272 20.8792C88.3998 21.4424 88.4362 21.9511 88.4362 22.4052V29.4905H91.7608V21.2743C91.7608 20.9292 91.729 20.4704 91.6654 19.8982C91.6109 19.3259 91.4837 18.7218 91.2839 18.086C91.0841 17.4501 90.7752 16.8506 90.3574 16.2874C89.9395 15.7152 89.3718 15.2519 88.6542 14.8976C87.9457 14.5343 87.0509 14.3526 85.97 14.3526C84.9072 14.3526 83.9716 14.5388 83.1631 14.9112C82.3638 15.2746 81.6961 15.7742 81.1602 16.41V14.775H78.2307V29.4905Z" fill="white"/>
<path d="M72.9387 28.553C74.0696 27.6992 74.8838 26.6293 75.3811 25.3433C75.8802 24.0445 75.9522 22.6927 75.5972 21.2876L72.4179 22.4586C72.7388 23.9691 72.2432 25.2197 70.931 26.2103C70.0393 26.8835 69.1418 27.1571 68.2385 27.031C67.3297 26.8976 66.4579 26.3835 65.623 25.4887L74.1267 19.0686C73.161 17.5783 72.0801 16.4708 70.8842 15.7461C69.6883 15.0214 68.4492 14.6992 67.1668 14.7796C65.8917 14.8545 64.6452 15.3517 63.4273 16.2712C62.2746 17.1414 61.4567 18.1686 60.9736 19.3528C60.485 20.5298 60.3527 21.7793 60.5767 23.1011C60.8007 24.423 61.3971 25.7255 62.3658 27.0087C63.2634 28.1976 64.3072 29.06 65.497 29.5958C66.6941 30.1261 67.9364 30.3093 69.224 30.1453C70.5115 29.9814 71.7498 29.4506 72.9387 28.553ZM65.2683 18.4835C66.0802 17.8705 66.8652 17.6137 67.6231 17.7131C68.3827 17.7997 69.1681 18.2595 69.9792 19.0927L64.194 23.4603C63.1703 21.456 63.5284 19.7971 65.2683 18.4835Z" fill="white"/>
<circle cx="107.3" cy="21.3005" r="12.7739" fill="#FF7A00"/>
<circle cx="107.3" cy="21.3005" r="12.7739" fill="url(#paint0_linear)"/>
<path d="M107.581 19.7426C108.286 19.4006 108.957 18.9699 109.593 18.4506C110.229 17.9312 110.575 17.4309 110.63 16.9496L110.63 15.3536C110.63 14.9989 110.768 14.7012 111.045 14.4606C111.308 14.2072 111.633 14.0806 112.02 14.0806C112.407 14.0806 112.732 14.2009 112.995 14.4416C113.272 14.6949 113.41 14.9989 113.41 15.3536L113.41 16.9496L113.389 16.9496L113.389 17.1396C113.334 18.0516 112.774 18.9952 111.709 19.9706C111.17 20.4519 110.561 20.8952 109.883 21.3006C110.561 21.7059 111.17 22.1556 111.709 22.6496C112.774 23.6122 113.334 24.5496 113.389 25.4616L113.389 25.6516L113.41 25.6516L113.41 27.2476C113.41 27.6022 113.272 27.8999 112.995 28.1406C112.732 28.3939 112.407 28.5206 112.02 28.5206C111.633 28.5206 111.308 28.3939 111.045 28.1406C110.768 27.8999 110.63 27.6022 110.63 27.2476L110.63 25.6516C110.575 25.1702 110.229 24.6699 109.593 24.1506C108.957 23.6312 108.286 23.2006 107.581 22.8586C107.429 22.7826 107.283 22.7066 107.145 22.6306C107.104 22.6559 107.062 22.6812 107.021 22.7066C106.301 23.0486 105.624 23.4792 104.988 23.9986C104.352 24.5179 104.013 25.0182 103.971 25.4996L103.971 27.0956C103.971 27.4502 103.833 27.7479 103.556 27.9886C103.294 28.2419 102.969 28.3686 102.581 28.3686C102.194 28.3686 101.862 28.2419 101.586 27.9886C101.323 27.7479 101.191 27.4502 101.191 27.0956L101.191 25.3096C101.247 24.3976 101.8 23.4602 102.851 22.4976C103.335 22.0669 103.861 21.6679 104.428 21.3006C103.861 20.9332 103.335 20.5342 102.851 20.1036C101.8 19.1409 101.247 18.2036 101.191 17.2916L101.191 15.5056C101.191 15.1509 101.323 14.8469 101.586 14.5936C101.862 14.3529 102.194 14.2326 102.581 14.2326C102.969 14.2326 103.294 14.3592 103.556 14.6126C103.833 14.8532 103.971 15.1509 103.971 15.5056L103.971 17.1016C104.013 17.5829 104.352 18.0832 104.988 18.6026C105.624 19.1219 106.301 19.5526 107.021 19.8946C107.062 19.9199 107.104 19.9452 107.145 19.9706C107.283 19.8946 107.429 19.8186 107.581 19.7426Z" fill="white"/>
<defs>
<linearGradient id="paint0_linear" x1="116.742" y1="11.7887" x2="98.4143" y2="30.1164" gradientUnits="userSpaceOnUse">
<stop stop-color="white" stop-opacity="0.24"/>
<stop offset="1" stop-color="white" stop-opacity="0"/>
</linearGradient>
</defs>
</svg>
