<svg width="1130" height="26" viewBox="0 0 1130 26" fill="none" xmlns="http://www.w3.org/2000/svg">
<path d="M547 25.5999C551.1 26.2666 554.183 25.4833 556.25 23.2499C558.317 21.0166 559.35 17.7166 559.35 13.35V-5.14984e-05H547V12.85H553.4C553.667 15.1166 553.367 16.9833 552.5 18.4499C551.6 19.9166 550 20.5666 547.7 20.4L547 25.5999ZM563.75 25.5999C567.85 26.2666 570.933 25.4833 573 23.2499C575.067 21.0166 576.1 17.7166 576.1 13.35V-5.14984e-05H563.75V12.85H570.15C570.417 15.1166 570.117 16.9833 569.25 18.4499C568.35 19.9166 566.75 20.5666 564.45 20.4L563.75 25.5999Z" fill="#20222E"/>
<path d="M0 14.8799H514" stroke="#DEE0EC"/>
<path d="M616 14.8799H1130" stroke="#DEE0EC"/>
</svg>
