<svg width="27" height="27" viewBox="0 0 27 27" fill="none" xmlns="http://www.w3.org/2000/svg">
<rect x="13.9492" y="6.86475" width="2.05551" height="10.9627" rx="1.02775" transform="rotate(45 13.9492 6.86475)" fill="white"/>
<rect x="19.7622" y="6.86475" width="2.05551" height="18.4996" rx="1.02775" transform="rotate(45 19.7622 6.86475)" fill="#21B786"/>
<rect x="8.61914" y="6.38062" width="2.05551" height="3.42585" rx="1.02775" transform="rotate(45 8.61914 6.38062)" fill="white"/>
<rect x="19.7622" y="17.5244" width="2.05551" height="3.42585" rx="1.02775" transform="rotate(45 19.7622 17.5244)" fill="white"/>
<path d="M18.8769 8.09368C18.8769 7.52606 19.337 7.06592 19.9046 7.06592C20.4722 7.06592 20.9324 7.52606 20.9324 8.09368L20.9324 10.8344C20.9324 11.402 20.4722 11.8621 19.9046 11.8621C19.337 11.8621 18.8769 11.402 18.8769 10.8344L18.8769 8.09368Z" fill="#21B786"/>
<path d="M19.8625 9.07934C20.4301 9.07934 20.8903 8.6192 20.8903 8.05159C20.8903 7.48397 20.4301 7.02383 19.8625 7.02383L17.1218 7.02383C16.5542 7.02383 16.0941 7.48397 16.0941 8.05159C16.0941 8.6192 16.5542 9.07934 17.1218 9.07934H19.8625Z" fill="#21B786"/>
<rect x="19.7622" y="12.6785" width="2.05551" height="10.9627" rx="1.02775" transform="rotate(45 19.7622 12.6785)" fill="white"/>
</svg>
