<svg width="11" height="23" viewBox="0 0 11 23" fill="none" xmlns="http://www.w3.org/2000/svg">
<path d="M2.88856 17.3652C2.4965 16.1284 3.3133 15.1141 3.7707 14.7615C3.37864 15.9819 3.96674 16.4701 4.45681 16.877C4.45681 16.4864 4.5875 16.226 4.65285 16.1447C5.04491 16.5352 5.20827 17.2838 5.24094 17.6092C5.43697 17.5279 5.77023 17.2187 5.53499 16.6329C5.29975 16.047 5.43697 15.3582 5.53499 15.0869C5.633 15.2225 5.86824 15.6239 6.02507 16.1447C6.2603 15.8843 6.25377 15.1141 6.2211 14.7615C8.57347 17.0397 7.20125 19.345 6.2211 20.2129C6.53475 19.562 6.2211 18.8026 6.02507 18.5043C6.10348 19.9363 4.68552 21.4334 3.96674 22.003C4.16277 21.569 4.57443 20.4896 4.65285 19.6434C4.73126 18.7972 4.3588 18.3144 4.16277 18.1788C4.24118 19.3505 3.60735 20.0231 3.28063 20.2129C3.3133 19.779 3.28063 18.6019 2.88856 17.3652Z" fill="#EF5147"/>
<path d="M2.91722 14.5062L1.38775 15.3185L0.56668 12.9047C-0.763778 8.99341 0.291893 4.66944 3.27751 1.8013L5.15259 0V2.55308L4.5676 3.0724C2.04864 5.30861 1.04113 8.78359 1.97601 12.0111L4.44668 11.0827V13.4617H2.38779L2.91722 14.5062Z" fill="#556DF6"/>
<path d="M7.38796 14.5062L8.91742 15.3185L9.73849 12.9047C11.069 8.99341 10.0133 4.66944 7.02766 1.8013L5.15259 0V2.55308L5.73758 3.0724C8.25654 5.30861 9.26404 8.78359 8.32917 12.0111L5.8585 11.0827V13.4617H7.91739L7.38796 14.5062Z" fill="#556DF6"/>
<path d="M6.90214 7.42715C6.90214 8.32445 6.17106 9.05184 5.26923 9.05184C4.36739 9.05184 3.63631 8.32445 3.63631 7.42715C3.63631 6.52986 4.36739 5.80246 5.26923 5.80246C6.17106 5.80246 6.90214 6.52986 6.90214 7.42715Z" fill="#556DF6"/>
</svg>
