<svg width="32" height="26" viewBox="0 0 32 26" fill="none" xmlns="http://www.w3.org/2000/svg">
<path d="M21 25V22.3333C21 20.9188 20.4381 19.5623 19.4379 18.5621C18.4377 17.5619 17.0812 17 15.6667 17H6.33333C4.91885 17 3.56229 17.5619 2.5621 18.5621C1.5619 19.5623 1 20.9188 1 22.3333V25" stroke="#21B786" stroke-width="2" stroke-linecap="round" stroke-linejoin="round"/>
<path d="M11.0001 11.6667C13.9456 11.6667 16.3334 9.27885 16.3334 6.33333C16.3334 3.38781 13.9456 1 11.0001 1C8.05456 1 5.66675 3.38781 5.66675 6.33333C5.66675 9.27885 8.05456 11.6667 11.0001 11.6667Z" stroke="#21B786" stroke-width="2" stroke-linecap="round" stroke-linejoin="round"/>
<path d="M22.3333 11.6667L24.9999 14.3333L30.3333 9" stroke="#21B786" stroke-width="2" stroke-linecap="round" stroke-linejoin="round"/>
</svg>
