<svg width="25" height="25" viewBox="0 0 25 25" fill="none" xmlns="http://www.w3.org/2000/svg">
<path d="M14.3747 17.3202C14.3262 17.2722 14.2608 17.2453 14.1926 17.2453C14.1244 17.2453 14.059 17.2722 14.0105 17.3202L10.2658 21.0649C8.53198 22.7987 5.60581 22.9824 3.69155 21.0649C1.77407 19.1474 1.95776 16.2245 3.69155 14.4907L7.43628 10.7459C7.53618 10.646 7.53618 10.4817 7.43628 10.3818L6.15366 9.09917C6.10521 9.05119 6.03977 9.02428 5.97158 9.02428C5.90339 9.02428 5.83796 9.05119 5.7895 9.09917L2.04478 12.8439C-0.681592 15.5703 -0.681592 19.9821 2.04478 22.7052C4.77114 25.4284 9.18296 25.4316 11.9061 22.7052L15.6508 18.9605C15.7507 18.8606 15.7507 18.6962 15.6508 18.5963L14.3747 17.3202ZM22.7084 2.04478C19.9821 -0.681592 15.5703 -0.681592 12.8471 2.04478L9.09917 5.7895C9.05119 5.83796 9.02428 5.90339 9.02428 5.97158C9.02428 6.03977 9.05119 6.10521 9.09917 6.15366L10.3786 7.43306C10.4785 7.53296 10.6428 7.53296 10.7427 7.43306L14.4875 3.68833C16.2212 1.95454 19.1474 1.77085 21.0617 3.68833C22.9792 5.60581 22.7955 8.52876 21.0617 10.2625L17.3169 14.0073C17.269 14.0557 17.2421 14.1212 17.2421 14.1894C17.2421 14.2575 17.269 14.323 17.3169 14.3714L18.5996 15.6541C18.6995 15.754 18.8638 15.754 18.9637 15.6541L22.7084 11.9093C25.4316 9.18296 25.4316 4.77114 22.7084 2.04478ZM15.538 7.87456C15.4896 7.82658 15.4242 7.79967 15.356 7.79967C15.2878 7.79967 15.2223 7.82658 15.1739 7.87456L7.87456 15.1707C7.82658 15.2191 7.79967 15.2845 7.79967 15.3527C7.79967 15.4209 7.82658 15.4864 7.87456 15.5348L9.15073 16.811C9.25064 16.9109 9.41499 16.9109 9.51489 16.811L16.811 9.51489C16.9109 9.41499 16.9109 9.25064 16.811 9.15073L15.538 7.87456Z" fill="#21B786"/>
</svg>
