<svg width="24" height="24" viewBox="0 0 24 24" fill="none" xmlns="http://www.w3.org/2000/svg">
<rect opacity="0.08" width="24" height="24" rx="6" fill="#999DB4"/>
<path fill-rule="evenodd" clip-rule="evenodd" d="M18.611 11.5449C17.9935 8.03524 16.6131 7 15.8788 7C14.7329 7 14.4389 7.86709 12 7.8963C9.56119 7.86709 9.26719 7 8.12127 7C7.38695 7 6.00583 8.03524 5.38842 11.5449C5.03631 13.5484 4.6541 16.5394 5.56482 16.8985C6.69814 17.3452 7.08245 16.2281 8.32707 15.284C9.59059 14.3272 10.1968 14.102 12 14.102C13.8033 14.102 14.4095 14.3272 15.673 15.284C16.9176 16.2274 17.3019 17.3452 18.4353 16.8985C19.346 16.5394 18.9638 13.5491 18.611 11.5449ZM9.19999 12.0002C8.82868 12.0002 8.47257 11.8501 8.21002 11.5828C7.94746 11.3156 7.79996 10.9532 7.79996 10.5752C7.79996 10.1973 7.94746 9.83487 8.21002 9.56763C8.47257 9.3004 8.82868 9.15027 9.19999 9.15027C9.57129 9.15027 9.9274 9.3004 10.19 9.56763C10.4525 9.83487 10.6 10.1973 10.6 10.5752C10.6 10.9532 10.4525 11.3156 10.19 11.5828C9.9274 11.8501 9.57129 12.0002 9.19999 12.0002ZM14.1001 12.0002C13.9144 12.0002 13.7364 11.9251 13.6051 11.7915C13.4738 11.6579 13.4001 11.4767 13.4001 11.2877C13.4001 11.0988 13.4738 10.9175 13.6051 10.7839C13.7364 10.6503 13.9144 10.5752 14.1001 10.5752C14.2857 10.5752 14.4638 10.6503 14.5951 10.7839C14.7263 10.9175 14.8001 11.0988 14.8001 11.2877C14.8001 11.4767 14.7263 11.6579 14.5951 11.7915C14.4638 11.9251 14.2857 12.0002 14.1001 12.0002ZM15.5001 10.5752C15.3144 10.5752 15.1364 10.5002 15.0051 10.3666C14.8738 10.2329 14.8001 10.0517 14.8001 9.86275C14.8001 9.67379 14.8738 9.49257 15.0051 9.35895C15.1364 9.22534 15.3144 9.15027 15.5001 9.15027C15.6858 9.15027 15.8638 9.22534 15.9951 9.35895C16.1264 9.49257 16.2001 9.67379 16.2001 9.86275C16.2001 10.0517 16.1264 10.2329 15.9951 10.3666C15.8638 10.5002 15.6858 10.5752 15.5001 10.5752Z" fill="#999DB4"/>
</svg>
