<svg width="359" height="200" viewBox="0 0 359 200" fill="none" xmlns="http://www.w3.org/2000/svg">
<path d="M0 5.99999C0 2.68629 2.68629 0 6 0H353C356.314 0 359 2.68629 359 6V200H0V5.99999Z" fill="#0075CA"/>
<rect x="7" y="181" width="16" height="19" fill="url(#paint0_linear)"/>
<rect x="103" y="136" width="16" height="64" fill="url(#paint1_linear)"/>
<rect x="199" y="151" width="16" height="49" fill="url(#paint2_linear)"/>
<rect x="55" y="162" width="16" height="38" fill="url(#paint3_linear)"/>
<rect x="151" y="151" width="16" height="49" fill="url(#paint4_linear)"/>
<rect x="247" y="96" width="16" height="104" fill="url(#paint5_linear)"/>
<rect x="319" y="85" width="16" height="115" fill="url(#paint6_linear)"/>
<rect x="31" y="168" width="16" height="32" fill="url(#paint7_linear)"/>
<rect x="127" y="116" width="16" height="84" fill="url(#paint8_linear)"/>
<rect x="223" y="108" width="16" height="92" fill="url(#paint9_linear)"/>
<rect x="295" y="105" width="16" height="95" fill="url(#paint10_linear)"/>
<rect x="79" y="168" width="16" height="32" fill="url(#paint11_linear)"/>
<rect x="175" y="151" width="16" height="49" fill="url(#paint12_linear)"/>
<rect x="271" y="124" width="16" height="76" fill="url(#paint13_linear)"/>
<rect x="343" y="64" width="16" height="136" fill="url(#paint14_linear)"/>
<path d="M239.297 151.311C237.199 145.76 234.2 140.478 230.391 135.589V129.391C230.391 126.296 229.118 123.342 226.782 121.013L226.856 120.359C227.147 117.896 226.388 115.508 224.714 113.618C222.95 111.639 220.383 110.5 217.66 110.5H217.392C217.623 110.21 217.846 109.912 218.062 109.615C218.345 109.302 218.568 109.02 218.761 108.759C221.641 104.853 223.806 100.575 225.22 96.0212C227.987 95.6269 230.502 94.2876 232.407 92.2043C234.572 89.8234 235.688 86.7356 235.532 83.514L235.115 74.6376C234.966 71.4159 233.568 68.4546 231.187 66.282C229.074 64.355 226.365 63.2538 223.516 63.1496C221.313 58.0158 218.226 53.3432 214.319 49.2436C205.659 40.1588 193.977 34.9878 181.433 34.6902C181.039 34.6827 180.637 34.6753 180.242 34.6753C168.152 34.6753 156.664 39.2809 147.884 47.6513C142.177 53.0902 137.929 59.861 135.548 67.2865C132.721 67.6511 130.139 68.9978 128.197 71.1332C126.032 73.5141 124.916 76.6018 125.072 79.8235L125.489 88.6999C125.786 95.0093 130.861 99.987 137.125 100.188C138.71 103.878 140.756 107.331 143.227 110.5H143.003C140.28 110.5 137.713 111.639 135.95 113.618C134.358 115.411 133.591 117.665 133.77 120.002C132.884 120.716 132.103 121.527 131.441 122.412C129.879 124.488 129.053 126.906 129.053 129.399V137.308C125.853 141.713 123.294 146.422 121.441 151.311C118.539 158.982 118.413 165.001 121.054 169.212H120.169C123.815 172.233 127.684 174.986 131.739 177.441C146.433 177.166 162.914 177.017 180.332 177.017C197.75 177.017 214.23 177.173 228.925 177.441C232.98 174.986 236.841 172.233 240.495 169.212H239.676C242.325 165.001 242.199 158.982 239.297 151.311Z" fill="white"/>
<path d="M238.567 36.5354C238.612 41.8851 240.606 47.0189 244.192 50.9921C244.386 51.2079 244.415 51.5129 244.259 51.7808L241.097 57.2048C240.249 58.6631 240.487 60.5158 241.677 61.7137C242.377 62.4131 243.314 62.8 244.311 62.8C244.966 62.8 245.621 62.6214 246.186 62.294L254.333 57.5396C254.423 57.4875 254.519 57.4578 254.624 57.4578C254.668 57.4578 254.713 57.4652 254.75 57.4727C256.528 57.9489 258.374 58.2018 260.234 58.2167H260.412C263.909 58.2167 267.22 57.3759 270.167 55.8879C264.973 41.9818 256.848 29.5861 246.566 19.5044C241.648 23.5668 238.515 29.72 238.567 36.5354Z" fill="white"/>
<path d="M227.824 129.399V161.571C227.824 163.067 227.437 164.495 226.737 165.782C224.833 169.317 220.607 171.787 215.733 171.787H143.71C139.611 171.787 135.98 170.046 133.785 167.39C132.423 165.738 131.62 163.736 131.62 161.579V129.406C131.62 127.412 132.312 125.545 133.495 123.968C135.637 121.103 139.417 119.198 143.703 119.198H215.726C216.306 119.198 216.879 119.235 217.437 119.302C223.293 119.994 227.824 124.273 227.824 129.399Z" fill="white"/>
<path d="M215.74 172.866H143.718C139.454 172.866 135.436 171.073 132.959 168.074C131.381 166.162 130.548 163.915 130.548 161.571V129.399C130.548 127.234 131.27 125.128 132.639 123.305C135.079 120.046 139.216 118.104 143.71 118.104H215.733C216.351 118.104 216.976 118.142 217.578 118.216C224.029 118.997 228.903 123.804 228.903 129.399V161.571C228.903 163.223 228.493 164.815 227.69 166.296C225.539 170.284 220.845 172.866 215.74 172.866ZM143.718 120.27C139.901 120.27 136.411 121.892 134.372 124.607C133.286 126.051 132.713 127.71 132.713 129.399V161.571C132.713 163.402 133.375 165.172 134.625 166.698C136.694 169.205 140.087 170.701 143.71 170.701H215.733C220.056 170.701 223.999 168.565 225.785 165.269C226.417 164.101 226.737 162.858 226.737 161.571V129.399C226.737 124.898 222.69 121.014 217.318 120.366C216.797 120.299 216.269 120.27 215.74 120.27H143.718Z" fill="#371A45"/>
<path d="M180.644 110.24C205.25 114.31 228.203 129.257 236.893 152.218C243.917 170.775 231.157 171.779 231.157 171.779H180.138H180.607H129.588C129.588 171.779 116.835 170.782 123.859 152.218C132.55 129.257 155.503 114.31 180.108 110.24" fill="white"/>
<g opacity="0.35">
<path opacity="0.35" d="M231.157 171.779H129.581C129.581 171.779 120.66 171.08 121.851 159.986C121.865 160.12 121.888 160.254 121.91 160.381C122.766 165.812 130.161 166.869 132.624 161.958L133.74 159.733H226.924L228.122 162.07C230.614 166.943 237.928 165.857 238.821 160.455C238.843 160.299 238.873 160.143 238.888 159.979C240.086 171.08 231.157 171.779 231.157 171.779Z" fill="#371A45"/>
</g>
<path d="M125.429 160.671C125.429 160.671 130.287 146.021 143.375 145.976C155.451 145.939 160.056 151.958 157.229 160.232C155.823 164.346 140.778 168.238 133.74 159.748" fill="white"/>
<g opacity="0.35">
<path opacity="0.35" d="M157.229 160.232C155.823 164.346 140.778 168.238 133.74 159.748C133.74 158.26 135.384 157.39 136.634 158.201C144.246 163.163 155.994 159.726 157.229 156.11C157.497 155.321 157.698 154.555 157.832 153.811C158.233 155.708 158.033 157.881 157.229 160.232Z" fill="#371A45"/>
</g>
<path d="M125.087 160.552C125.109 158.833 125.704 157.285 126.463 155.842C127.215 154.384 128.19 153.052 129.283 151.824C130.384 150.604 131.56 149.428 132.899 148.439C134.231 147.442 135.704 146.608 137.274 146.013C138.844 145.41 140.503 145.053 142.17 144.934L143.42 144.89C143.822 144.897 144.231 144.897 144.633 144.912C145.444 144.942 146.255 144.994 147.073 145.091C148.695 145.277 150.332 145.604 151.909 146.192C153.487 146.765 155.027 147.628 156.292 148.855C157.572 150.076 158.487 151.72 158.859 153.446C159.246 155.172 159.164 156.943 158.799 158.587C158.717 159.004 158.598 159.406 158.494 159.808L158.308 160.403L158.264 160.552C158.249 160.604 158.211 160.678 158.189 160.738L158.011 161.125C157.467 162.062 156.738 162.65 156.017 163.156C154.551 164.138 152.973 164.718 151.366 165.15C148.16 165.968 144.796 166.124 141.523 165.44C141.113 165.351 140.704 165.261 140.302 165.135C139.893 165.031 139.499 164.882 139.105 164.748C138.71 164.614 138.323 164.443 137.922 164.294C137.542 164.108 137.14 163.959 136.768 163.744C136.396 163.535 136.024 163.327 135.689 163.052C135.34 162.806 135.027 162.516 134.73 162.203C134.142 161.586 133.673 160.834 133.457 159.964C133.405 159.748 133.532 159.532 133.748 159.48C133.822 159.458 133.904 159.465 133.971 159.488L134.008 159.503C134.432 159.644 134.759 159.845 135.109 160.023C135.459 160.195 135.756 160.41 136.076 160.589C136.233 160.686 136.381 160.782 136.53 160.886C136.686 160.983 136.843 161.065 136.992 161.169C137.148 161.258 137.289 161.37 137.445 161.459C137.602 161.549 137.758 161.645 137.907 161.742C139.112 162.538 140.526 163.014 141.962 163.327C144.849 163.937 147.929 163.803 150.801 163.059C152.229 162.672 153.636 162.136 154.789 161.363C155.354 160.983 155.853 160.522 156.098 160.09C156.121 160.038 156.136 159.986 156.165 159.942C156.18 159.912 156.188 159.904 156.203 159.86L156.247 159.726L156.411 159.198C156.508 158.84 156.612 158.491 156.679 158.134C156.991 156.712 157.043 155.262 156.746 153.922C156.448 152.576 155.771 151.355 154.774 150.403C153.784 149.443 152.52 148.721 151.151 148.223C149.782 147.717 148.308 147.412 146.813 147.241C146.069 147.152 145.31 147.107 144.551 147.077L143.413 147.062L142.311 147.099C140.846 147.196 139.402 147.509 138.033 148.037C135.303 149.086 132.862 150.939 130.987 153.275C130.518 153.863 130.079 154.465 129.655 155.09C129.224 155.708 128.815 156.34 128.405 156.973C127.602 158.253 126.806 159.547 125.764 160.782L125.749 160.805C125.615 160.968 125.377 160.983 125.213 160.849C125.132 160.775 125.087 160.663 125.087 160.552Z" fill="#371A45"/>
<path d="M235.242 160.671C235.242 160.671 230.383 146.021 217.296 145.976C205.22 145.939 200.614 151.958 203.442 160.232C204.848 164.346 219.892 168.238 226.931 159.748" fill="white"/>
<path d="M235.242 160.671C235.242 160.671 230.383 146.021 217.296 145.976C205.22 145.939 200.614 151.958 203.442 160.232C204.848 164.346 219.892 168.238 226.931 159.748L235.242 160.671Z" fill="white"/>
<g opacity="0.35">
<path opacity="0.35" d="M226.923 159.748C219.885 168.238 204.848 164.346 203.434 160.232C202.63 157.881 202.429 155.708 202.831 153.811C202.965 154.555 203.166 155.321 203.434 156.11C204.669 159.726 216.417 163.163 224.029 158.201C225.279 157.39 226.923 158.26 226.923 159.748Z" fill="#371A45"/>
</g>
<path d="M234.899 160.782C233.865 159.547 233.069 158.253 232.258 156.973C231.849 156.333 231.439 155.708 231.008 155.091C230.591 154.466 230.145 153.863 229.676 153.275C227.801 150.939 225.361 149.094 222.63 148.037C221.261 147.509 219.818 147.196 218.352 147.1L217.243 147.062L216.105 147.077C215.346 147.107 214.587 147.152 213.843 147.241C212.347 147.412 210.874 147.71 209.505 148.223C208.136 148.722 206.871 149.443 205.882 150.403C204.885 151.363 204.208 152.583 203.91 153.922C203.612 155.269 203.657 156.713 203.977 158.134C204.044 158.491 204.148 158.84 204.245 159.198L204.409 159.726L204.453 159.86C204.468 159.904 204.475 159.912 204.49 159.942C204.513 159.994 204.535 160.038 204.557 160.09C204.803 160.522 205.301 160.983 205.867 161.363C207.013 162.137 208.426 162.672 209.855 163.059C212.727 163.796 215.815 163.937 218.694 163.327C220.13 163.015 221.544 162.538 222.749 161.742C222.898 161.645 223.054 161.549 223.21 161.459C223.367 161.37 223.508 161.259 223.664 161.169C223.813 161.073 223.977 160.983 224.126 160.887C224.274 160.782 224.423 160.686 224.579 160.589C224.899 160.41 225.197 160.195 225.547 160.024C225.889 159.845 226.224 159.644 226.64 159.503L226.678 159.488C226.886 159.413 227.109 159.525 227.184 159.733C227.206 159.808 227.213 159.89 227.191 159.957C226.975 160.827 226.506 161.579 225.919 162.196C225.621 162.501 225.309 162.799 224.959 163.044C224.624 163.312 224.252 163.528 223.88 163.736C223.508 163.952 223.114 164.101 222.727 164.287C222.332 164.436 221.946 164.607 221.544 164.741C221.149 164.875 220.755 165.023 220.346 165.128C219.944 165.247 219.535 165.343 219.126 165.433C215.852 166.117 212.489 165.961 209.282 165.142C207.682 164.703 206.105 164.131 204.632 163.148C203.91 162.65 203.181 162.055 202.638 161.117L202.459 160.73C202.437 160.671 202.4 160.596 202.385 160.544L202.34 160.396L202.154 159.8C202.042 159.399 201.923 158.997 201.849 158.58C201.492 156.936 201.41 155.172 201.79 153.439C202.162 151.713 203.077 150.068 204.356 148.848C205.629 147.613 207.161 146.757 208.739 146.184C210.324 145.597 211.953 145.269 213.575 145.083C214.386 144.986 215.205 144.934 216.016 144.905C216.425 144.89 216.827 144.89 217.228 144.882L218.478 144.927C220.145 145.039 221.812 145.396 223.374 146.006C224.944 146.608 226.41 147.442 227.749 148.431C229.088 149.421 230.256 150.597 231.365 151.817C232.459 153.044 233.433 154.384 234.185 155.835C234.951 157.278 235.539 158.826 235.561 160.544C235.561 160.753 235.398 160.924 235.189 160.931C235.07 160.931 234.966 160.879 234.892 160.797L234.899 160.782Z" fill="#371A45"/>
<path d="M231.201 172.866H129.499C129.313 172.851 124.886 172.464 122.341 168.454C119.938 164.659 120.101 159.071 122.84 151.847C131.113 129.987 152.988 113.633 179.922 109.183C180.078 109.161 180.227 109.169 180.369 109.206C180.51 109.169 180.659 109.161 180.815 109.183C207.749 113.64 229.624 129.987 237.898 151.847C240.636 159.079 240.799 164.666 238.396 168.461C235.859 172.464 231.424 172.858 231.238 172.873L231.201 172.866ZM180.607 170.701H231.112C231.499 170.656 234.728 170.232 236.588 167.271C238.567 164.123 238.322 159.056 235.881 152.613C227.883 131.467 206.648 115.642 180.465 111.319C180.436 111.311 180.398 111.304 180.369 111.297C180.339 111.304 180.309 111.311 180.272 111.319C154.097 115.649 132.862 131.467 124.856 152.613C122.415 159.064 122.17 164.131 124.149 167.271C126.009 170.232 129.223 170.663 129.633 170.708H180.607V170.701Z" fill="#371A45"/>
<path d="M223.94 93.566C223.441 93.5883 223.017 93.2014 222.995 92.7029L221.767 66.6616C221.745 66.1631 222.132 65.739 222.63 65.7167C227.868 65.4711 232.31 69.5187 232.563 74.7567L232.98 83.6331C233.218 88.8786 229.178 93.3205 223.94 93.566Z" fill="white"/>
<path d="M223.895 93.7669C223.315 93.7669 222.824 93.3056 222.794 92.7178L221.566 66.6765C221.537 66.0738 222.005 65.553 222.615 65.5232C227.958 65.2702 232.496 69.4071 232.749 74.7419L233.166 83.6182C233.285 86.2 232.392 88.6777 230.651 90.5973C228.91 92.5095 226.529 93.633 223.94 93.752C223.932 93.7669 223.91 93.7669 223.895 93.7669ZM223.077 65.9101C222.928 65.9101 222.779 65.9101 222.638 65.9176C222.243 65.9324 221.946 66.2673 221.961 66.6616L223.188 92.7029C223.203 93.0973 223.538 93.3949 223.932 93.38C229.051 93.1419 233.024 88.7744 232.786 83.6554L232.37 74.7791C232.124 69.794 228.01 65.9101 223.077 65.9101Z" fill="#371A45"/>
<g opacity="0.35">
<path opacity="0.35" d="M232.779 79.4736L232.972 83.6402C233.218 88.8783 229.17 93.3202 223.932 93.5732C223.434 93.5955 223.01 93.2086 222.987 92.7101L222.66 85.7905C222.816 86.103 223.144 86.3039 223.508 86.289L224.126 86.2593C228.263 86.0584 231.663 83.2385 232.779 79.4736Z" fill="#371A45"/>
</g>
<path d="M223.895 94.6522C222.838 94.6522 221.96 93.8189 221.908 92.7549L220.681 66.7135C220.629 65.6198 221.477 64.6898 222.571 64.6377C228.389 64.3624 233.359 68.8787 233.634 74.7045L234.051 83.5809C234.326 89.4067 229.81 94.3695 223.984 94.6447C223.955 94.6522 223.925 94.6522 223.895 94.6522ZM222.853 66.7954L224.066 92.4721C228.612 92.1597 232.109 88.2609 231.893 83.6851L231.477 74.8087C231.261 70.2403 227.407 66.6763 222.853 66.7954Z" fill="#371A45"/>
<path d="M136.679 69.7714C137.177 69.7491 137.602 70.136 137.624 70.6345L138.852 96.6758C138.874 97.1744 138.487 97.5985 137.988 97.6208C132.75 97.8663 128.309 93.8187 128.056 88.5807L127.639 79.7043C127.401 74.4663 131.441 70.017 136.679 69.7714Z" fill="white"/>
<path d="M137.542 97.8217C132.408 97.8217 128.115 93.7741 127.87 88.5882L127.453 79.7118C127.334 77.13 128.227 74.6523 129.968 72.7327C131.709 70.8205 134.09 69.697 136.679 69.578C137.289 69.5482 137.802 70.017 137.832 70.6271L139.06 96.6684C139.09 97.2711 138.621 97.7919 138.011 97.8217C137.847 97.8217 137.691 97.8217 137.542 97.8217ZM136.694 69.9649C131.575 70.203 127.602 74.5705 127.84 79.6895L128.256 88.5659C128.495 93.6848 132.862 97.658 137.981 97.4199C138.375 97.405 138.673 97.0702 138.658 96.6759L137.43 70.6345C137.416 70.2476 137.073 69.9426 136.694 69.9649Z" fill="#371A45"/>
<g opacity="0.35">
<path opacity="0.35" d="M138.517 89.4441L138.859 96.6687C138.881 97.1672 138.494 97.5913 137.996 97.6136C135.25 97.7401 132.713 96.691 130.89 94.8979C129.246 93.2833 128.182 91.0661 128.063 88.5736L127.884 84.8311C129.529 88.0453 132.944 90.1733 136.783 89.9947L137.735 89.95C138.085 89.9426 138.375 89.7343 138.517 89.4441Z" fill="#371A45"/>
</g>
<path d="M137.542 98.7072C131.939 98.7072 127.252 94.2876 126.984 88.6255L126.567 79.7491C126.292 73.9233 130.808 68.9606 136.634 68.6853C137.728 68.6406 138.658 69.4814 138.71 70.5752L139.938 96.6165C139.99 97.7102 139.142 98.6403 138.048 98.6924C137.877 98.7072 137.706 98.7072 137.542 98.7072ZM136.552 70.8653C132.006 71.1778 128.509 75.0766 128.725 79.6524L129.142 88.5288C129.358 93.1046 133.212 96.6611 137.765 96.5421L136.552 70.8653Z" fill="#371A45"/>
<path d="M180.317 126.088C204.849 126.088 224.736 106.201 224.736 81.6688C224.736 57.1369 204.849 37.2498 180.317 37.2498C155.785 37.2498 135.898 57.1369 135.898 81.6688C135.898 106.201 155.785 126.088 180.317 126.088Z" fill="white"/>
<path d="M180.332 126.281C179.967 126.281 179.61 126.274 179.245 126.266C154.655 125.679 135.124 105.188 135.712 80.5974C135.994 68.6853 140.905 57.5917 149.528 49.3701C158.152 41.1485 169.469 36.781 181.381 37.0637C193.293 37.3464 204.386 42.2571 212.608 50.8805C220.83 59.5039 225.205 70.8207 224.914 82.7328C224.334 106.966 204.438 126.281 180.332 126.281ZM180.287 37.4432C168.873 37.4432 158.085 41.7586 149.796 49.6603C141.247 57.8075 136.381 68.8044 136.099 80.6123C135.518 104.994 154.871 125.299 179.253 125.88C203.627 126.467 223.94 107.107 224.52 82.7253L224.713 82.7328L224.52 82.7253C224.803 70.9174 220.472 59.7048 212.318 51.1558C204.171 42.6068 193.174 37.7408 181.366 37.458C181.009 37.4506 180.644 37.4432 180.287 37.4432Z" fill="#371A45"/>
<g opacity="0.35">
<path opacity="0.35" d="M224.446 76.572C224.684 78.5884 224.773 80.6419 224.728 82.7327C224.141 107.256 203.784 126.661 179.26 126.08C154.737 125.493 135.332 105.136 135.913 80.6122C135.927 79.9053 135.965 79.1985 136.009 78.5065C138.487 100.195 156.634 117.286 179.074 117.821C202.891 118.387 222.779 100.099 224.446 76.572Z" fill="#371A45"/>
</g>
<path d="M180.332 127.174C179.96 127.174 179.595 127.167 179.23 127.159C154.149 126.557 134.231 105.664 134.834 80.5825C135.436 55.5009 156.314 35.583 181.41 36.1857C193.561 36.4759 204.87 41.4832 213.255 50.2778C221.641 59.0723 226.097 70.6123 225.807 82.7625C225.212 107.472 204.915 127.174 180.332 127.174ZM180.287 38.3285C169.104 38.3285 158.531 42.5547 150.414 50.3001C142.036 58.2836 137.267 69.0573 136.991 80.6345C136.418 104.526 155.391 124.421 179.282 124.994C203.166 125.567 223.069 106.594 223.642 82.703C224.215 58.8119 205.242 38.9163 181.351 38.3434C180.994 38.336 180.644 38.3285 180.287 38.3285Z" fill="#371A45"/>
<path d="M224.55 83.8712C224.475 92.5615 221.581 100.605 216.693 107.241C213.032 112.212 198.084 120.842 179.714 120.85C162.683 120.85 147.274 111.639 143.703 106.602C138.933 99.8829 136.188 91.7877 136.262 83.0974C136.463 60.0992 156.314 50.7317 180.689 50.9475C205.078 51.1558 224.758 60.8655 224.55 83.8712Z" fill="#371A45"/>
<path d="M179.714 121.929C162.095 121.929 146.567 112.502 142.824 107.227C137.75 100.076 135.109 91.7282 135.183 83.0825C135.28 71.8252 139.871 63.1869 148.829 57.4057C156.649 52.3612 167.668 49.7421 180.703 49.8686C193.739 49.9802 204.714 52.7853 212.444 57.9712C221.298 63.9086 225.733 72.6288 225.636 83.8861C225.562 92.5243 222.771 100.828 217.571 107.889C213.969 112.784 199.163 121.929 179.721 121.936C179.721 121.929 179.721 121.929 179.714 121.929ZM179.878 52.0189C167.616 52.0189 157.303 54.504 150.004 59.2137C141.701 64.5783 137.445 72.6139 137.348 83.0974C137.274 91.2818 139.781 99.1909 144.588 105.969C148.003 110.783 163.077 119.764 179.714 119.764H179.721C198.159 119.764 212.556 111.043 215.822 106.602C220.748 99.9052 223.396 92.0482 223.463 83.8637C223.716 55.4712 193.627 52.1454 180.681 52.0263C180.421 52.0263 180.145 52.0189 179.878 52.0189Z" fill="#371A45"/>
<g opacity="0.7">
<path opacity="0.7" d="M215.844 81.6816C216.656 77.4146 214.808 73.4784 211.716 72.8898C208.623 72.3012 205.458 75.2831 204.646 79.5501C203.834 83.817 205.682 87.7533 208.774 88.3419C211.867 88.9305 215.032 85.9486 215.844 81.6816Z" fill="white"/>
</g>
<g opacity="0.7">
<path opacity="0.7" d="M206.045 97.1171C206.685 95.2296 205.891 93.2548 204.272 92.7062C202.653 92.1577 200.822 93.2431 200.182 95.1307C199.543 97.0182 200.337 98.993 201.956 99.5416C203.575 100.09 205.406 99.0047 206.045 97.1171Z" fill="white"/>
</g>
<g opacity="0.35">
<path opacity="0.35" d="M216.157 62.3386C221.507 67.532 224.632 74.6301 224.55 83.8711C224.476 92.5615 221.581 100.612 216.701 107.241C213.04 112.212 198.085 120.842 179.722 120.85C173.234 120.85 166.991 119.518 161.538 117.583C184.112 117.1 202.326 106.505 206.864 100.337C213.062 91.9141 216.738 81.7059 216.827 70.6793C216.857 67.7255 216.619 64.9428 216.157 62.3386Z" fill="#111A28"/>
</g>
<path d="M220.926 64.7493C220.688 64.7493 220.443 64.6675 220.242 64.5038L220.13 64.4071L220.041 64.2806C212.645 53.7078 198.226 47.5546 180.48 47.3983C162.653 47.2347 148.13 53.3358 140.659 64.1169L140.607 64.1913C140.228 64.6526 139.543 64.7196 139.082 64.3401C138.636 63.9681 138.554 63.3208 138.903 62.8595C146.79 51.498 161.961 45.0695 180.503 45.2406C198.94 45.4043 213.992 51.8849 221.804 63.0231C222.094 63.41 222.094 63.9681 221.774 64.355C221.551 64.608 221.239 64.7493 220.926 64.7493Z" fill="#371A45"/>
<g opacity="0.7">
<path opacity="0.7" d="M146.061 96.8619C146.061 96.8619 139.134 74.1093 151.448 65.1734C163.754 56.2375 181.351 56.4309 180.927 57.5544C180.927 57.5544 161.411 62.1005 153.65 77.4277C147.668 89.2504 146.061 96.8619 146.061 96.8619Z" fill="white"/>
</g>
<path d="M93.3165 180.187C96.9399 179.614 100.571 179.472 104.194 179.406C106.01 179.368 107.818 179.361 109.633 179.368C111.449 179.368 113.257 179.391 115.072 179.413C118.696 179.45 122.327 179.458 125.95 179.45H136.828H180.339H223.851H245.606H251.045L253.768 179.42L256.492 179.376C260.115 179.361 263.746 179.398 267.369 180.187C267.57 180.231 267.704 180.432 267.66 180.641C267.63 180.789 267.511 180.901 267.369 180.931C263.746 181.727 260.115 181.757 256.492 181.742L253.768 181.697L251.045 181.667H245.606H223.851H180.339H136.828H125.95C122.327 181.66 118.696 181.667 115.072 181.705C113.257 181.727 111.449 181.749 109.633 181.749C107.818 181.757 106.01 181.749 104.194 181.712C100.571 181.645 96.9399 181.504 93.3165 180.931C93.1156 180.901 92.9742 180.708 93.004 180.499C93.0263 180.336 93.1602 180.217 93.3165 180.187Z" fill="#371A45"/>
<path d="M250.427 180.12H110.251C107.981 180.12 106.144 178.282 106.144 176.013V175.879C106.144 173.61 107.981 171.772 110.251 171.772H250.427C252.697 171.772 254.535 173.61 254.535 175.879V176.013C254.535 178.282 252.697 180.12 250.427 180.12Z" fill="#F92323"/>
<path d="M250.427 180.276H110.251C107.899 180.276 105.987 178.364 105.987 176.013V175.879C105.987 173.528 107.899 171.616 110.251 171.616H250.427C252.779 171.616 254.691 173.528 254.691 175.879V176.013C254.691 178.372 252.779 180.276 250.427 180.276ZM110.251 171.936C108.071 171.936 106.3 173.706 106.3 175.887V176.02C106.3 178.2 108.071 179.971 110.251 179.971H250.427C252.607 179.971 254.378 178.2 254.378 176.02V175.887C254.378 173.706 252.607 171.936 250.427 171.936H110.251Z" fill="#371A45"/>
<path d="M250.427 181.206H110.25C107.393 181.206 105.064 178.877 105.064 176.02V175.886C105.064 173.029 107.393 170.7 110.25 170.7H250.427C253.284 170.7 255.613 173.029 255.613 175.886V176.02C255.621 178.877 253.292 181.206 250.427 181.206ZM110.25 172.866C108.584 172.866 107.23 174.22 107.23 175.886V176.02C107.23 177.687 108.584 179.041 110.25 179.041H250.427C252.094 179.041 253.448 177.687 253.448 176.02V175.886C253.448 174.22 252.094 172.866 250.427 172.866H110.25Z" fill="#371A45"/>
<g opacity="0.5">
<path opacity="0.5" d="M250.494 173.014H133.338H123.532H110.184C108.614 173.014 107.342 174.331 107.342 175.953C107.342 177.136 108.026 178.163 109.008 178.624C108.711 178.163 108.539 177.605 108.539 177.01C108.539 175.388 109.812 174.071 111.382 174.071H123.398C124.023 174.785 126.032 175.306 128.428 175.306C130.823 175.306 132.84 174.785 133.457 174.071H251.685C252.102 174.071 252.503 174.168 252.861 174.339C252.355 173.543 251.484 173.014 250.494 173.014Z" fill="white"/>
</g>
<path d="M220.004 171.445H140.63C137.029 171.445 134.104 168.528 134.104 164.919V164.584H226.521V164.919C226.521 168.528 223.605 171.445 220.004 171.445Z" fill="#C5D3E2"/>
<g opacity="0.35">
<path opacity="0.35" d="M226.521 164.592V164.927C226.521 168.528 223.597 171.452 219.996 171.452H140.63C137.029 171.452 134.104 168.528 134.104 164.927V164.592H134.395C135.213 167.255 137.698 169.19 140.63 169.19H219.996C222.928 169.19 225.413 167.255 226.231 164.592H226.521Z" fill="#371A45"/>
</g>
<path d="M220.004 172.531H140.63C136.433 172.531 133.026 169.123 133.026 164.927V163.513H227.608V164.927C227.608 169.116 224.193 172.531 220.004 172.531ZM135.243 165.671C135.607 168.319 137.884 170.358 140.63 170.358H220.004C222.749 170.358 225.026 168.312 225.391 165.671H135.243Z" fill="#371A45"/>
<g opacity="0.6">
<path opacity="0.6" d="M138.271 166.757H224.974C225.085 166.459 225.175 166.147 225.234 165.827H135.392C135.764 167.851 137.237 169.48 139.149 170.023C138.457 169.473 137.892 168.744 137.534 167.91C137.304 167.367 137.698 166.757 138.271 166.757Z" fill="white"/>
</g>
<path d="M212.258 171.378H148.42C145.012 171.378 142.148 168.967 141.776 165.782L136.366 120.061C135.927 116.334 139.03 113.075 143.011 113.075H217.66C221.648 113.075 224.743 116.334 224.304 120.061L218.903 165.782C218.531 168.967 215.666 171.378 212.258 171.378Z" fill="#3AAAFF"/>
<g opacity="0.6">
<path opacity="0.6" d="M184.804 147.196C184.818 147.189 184.826 147.189 184.841 147.181C185.235 147.018 185.6 147.442 185.376 147.806C184.737 148.848 183.769 149.704 182.534 150.195C179.752 151.303 176.522 150.113 175.139 147.464C173.539 144.406 174.878 140.678 177.996 139.317C179.171 138.803 180.429 138.699 181.597 138.952C181.984 139.034 182.036 139.562 181.679 139.719L181.664 139.726C179.513 140.664 178.591 143.238 179.714 145.351C180.667 147.159 182.899 147.97 184.804 147.196Z" fill="white"/>
</g>
<path d="M213.307 124.942C213.285 124.347 213.27 123.737 213.069 123.156C213.01 123.097 212.95 123.037 212.891 122.985C212.712 122.948 212.533 122.896 212.347 122.874C211.053 122.74 209.773 122.799 208.508 123.104C206.856 123.499 205.398 124.25 204.245 125.508C203.828 125.961 203.456 126.46 203.069 126.951C202.965 127.085 202.883 127.144 202.705 127.092C202.281 126.973 201.842 126.958 201.41 127.003C200.242 127.122 199.267 127.658 198.389 128.409C197.444 129.228 196.73 130.232 196.09 131.296C195.815 131.743 196.016 132.174 196.537 132.263C196.864 132.316 197.199 132.375 197.526 132.427C198.315 132.554 199.104 132.688 199.885 132.814C199.885 132.836 199.892 132.851 199.892 132.859C199.885 132.874 199.885 132.896 199.877 132.911C199.624 133.357 199.758 133.722 200.138 134.019C200.182 134.057 200.22 134.094 200.257 134.131C200.465 134.332 200.674 134.533 200.897 134.741C200.674 134.972 200.458 135.173 200.264 135.403C200.168 135.522 200.093 135.679 200.078 135.827C200.041 136.073 200.197 136.289 200.421 136.378C200.659 136.475 200.882 136.437 201.068 136.259C201.299 136.036 201.514 135.798 201.745 135.56C202.043 135.85 202.325 136.125 202.608 136.393C202.928 136.698 203.129 136.735 203.531 136.549C203.605 136.512 203.679 136.49 203.761 136.452C203.784 136.542 203.798 136.609 203.813 136.676C204.029 137.754 204.245 138.833 204.468 139.905C204.572 140.411 205.011 140.597 205.443 140.306C205.83 140.046 206.217 139.771 206.596 139.488C207.467 138.833 208.225 138.074 208.791 137.129C209.49 135.946 209.788 134.696 209.356 133.342C209.342 133.29 209.371 133.186 209.416 133.156C209.795 132.821 210.19 132.502 210.569 132.167C211.432 131.4 212.072 130.478 212.526 129.421C213.129 128.008 213.359 126.497 213.307 124.942ZM200.346 131.698C199.438 131.549 198.493 131.385 197.519 131.229C198.322 130.069 199.2 129.034 200.502 128.454C201.068 128.201 201.745 128.112 202.176 128.216C201.574 129.369 200.964 130.522 200.346 131.698ZM208.322 135.061C208.211 135.798 207.876 136.437 207.429 137.025C206.879 137.754 206.202 138.335 205.45 138.885C205.249 137.896 205.056 136.929 204.862 135.976C206.016 135.314 207.147 134.667 208.285 134.019C208.382 134.339 208.382 134.704 208.322 135.061ZM211.849 127.702C211.596 128.692 211.202 129.622 210.569 130.433C210.078 131.058 209.498 131.586 208.873 132.077C207.184 133.402 205.309 134.414 203.382 135.329C203.285 135.374 203.226 135.374 203.144 135.292C202.973 135.113 202.787 134.942 202.608 134.771C202.593 134.763 202.593 134.741 202.571 134.711C202.615 134.659 202.668 134.615 202.712 134.563C203.732 133.499 204.758 132.442 205.785 131.378C206.083 131.073 206.031 130.634 205.681 130.433C205.435 130.292 205.153 130.336 204.937 130.56C204.319 131.192 203.709 131.832 203.092 132.464C202.638 132.941 202.184 133.409 201.708 133.9C201.485 133.685 201.276 133.491 201.083 133.29C201.046 133.253 201.06 133.141 201.09 133.089C201.566 132.077 202.035 131.066 202.541 130.061C203.04 129.071 203.635 128.134 204.312 127.256C204.944 126.423 205.659 125.671 206.574 125.143C207.162 124.808 207.779 124.54 208.434 124.369C208.493 124.354 208.59 124.399 208.642 124.451C209.453 125.225 210.249 125.999 211.053 126.772C211.291 127.003 211.529 127.241 211.782 127.464C211.856 127.531 211.871 127.598 211.849 127.702ZM212.065 126.415C211.261 125.641 210.48 124.89 209.699 124.131C209.699 124.109 209.699 124.086 209.699 124.064C210.473 124.042 211.254 124.019 212.035 123.997C212.147 124.83 212.139 125.604 212.065 126.415Z" fill="#371A45"/>
<path d="M211.782 127.465C211.537 127.241 211.299 127.003 211.053 126.773C210.249 125.999 209.453 125.218 208.642 124.451C208.59 124.399 208.493 124.354 208.434 124.369C207.779 124.54 207.162 124.801 206.574 125.143C205.659 125.664 204.944 126.423 204.312 127.256C203.635 128.134 203.04 129.072 202.541 130.061C202.035 131.058 201.566 132.078 201.09 133.089C201.061 133.149 201.046 133.253 201.083 133.29C201.276 133.499 201.492 133.692 201.708 133.9C202.184 133.409 202.638 132.933 203.092 132.464C203.702 131.825 204.319 131.192 204.937 130.56C205.16 130.337 205.443 130.292 205.681 130.433C206.031 130.642 206.083 131.073 205.785 131.378C204.766 132.442 203.739 133.499 202.712 134.563C202.66 134.615 202.616 134.667 202.571 134.711C202.593 134.749 202.593 134.764 202.608 134.771C202.787 134.95 202.973 135.113 203.144 135.292C203.226 135.374 203.285 135.366 203.382 135.329C205.316 134.414 207.184 133.402 208.873 132.078C209.498 131.594 210.078 131.058 210.569 130.433C211.202 129.622 211.596 128.692 211.849 127.703C211.871 127.598 211.857 127.532 211.782 127.465ZM209.959 129.109C209.178 129.905 207.906 129.935 207.11 129.161C206.313 128.395 206.291 127.115 207.065 126.311C207.824 125.523 209.096 125.5 209.9 126.274C210.688 127.04 210.718 128.328 209.959 129.109Z" fill="white"/>
<path d="M212.065 126.415C211.261 125.641 210.48 124.89 209.698 124.131C209.698 124.109 209.698 124.086 209.698 124.064C210.472 124.042 211.254 124.019 212.035 123.997C212.146 124.83 212.139 125.604 212.065 126.415Z" fill="#DB2C2C"/>
<path d="M202.184 128.216C201.574 129.369 200.971 130.53 200.354 131.705C199.439 131.549 198.494 131.393 197.526 131.237C198.33 130.076 199.208 129.034 200.51 128.461C201.068 128.201 201.753 128.112 202.184 128.216Z" fill="#DB2C2C"/>
<path d="M207.43 137.025C206.879 137.754 206.202 138.335 205.451 138.885C205.25 137.896 205.056 136.929 204.863 135.976C206.016 135.314 207.147 134.667 208.285 134.012C208.382 134.339 208.375 134.696 208.323 135.061C208.211 135.798 207.876 136.438 207.43 137.025Z" fill="#DB2C2C"/>
<path d="M209.9 126.274C209.096 125.508 207.824 125.522 207.065 126.311C206.291 127.115 206.313 128.394 207.109 129.161C207.905 129.935 209.178 129.905 209.959 129.109C210.718 128.327 210.688 127.04 209.9 126.274ZM209.252 128.461C208.858 128.871 208.188 128.878 207.772 128.484C207.34 128.075 207.34 127.383 207.764 126.958C208.158 126.557 208.843 126.549 209.252 126.951C209.669 127.368 209.669 128.037 209.252 128.461Z" fill="#371A45"/>
<path d="M209.252 128.461C208.858 128.871 208.188 128.878 207.771 128.484C207.34 128.074 207.34 127.39 207.764 126.958C208.158 126.557 208.843 126.549 209.245 126.951C209.661 127.368 209.669 128.037 209.252 128.461Z" fill="#22A7F0"/>
<g opacity="0.35">
<path opacity="0.35" d="M215.822 165.909L221.224 120.188C221.373 118.938 220.986 117.703 220.138 116.713C219.178 115.59 217.757 114.935 216.209 114.883V114.875C213.999 122.464 201.678 164.808 143.293 166.415C143.807 168.602 145.92 170.194 148.412 170.194H210.599C213.293 170.194 215.532 168.349 215.822 165.909Z" fill="#371A45"/>
</g>
<g opacity="0.6">
<path opacity="0.6" d="M144.833 166.675L139.432 120.954C139.275 119.63 139.685 118.328 140.577 117.278C141.627 116.051 143.196 115.351 144.885 115.351H219.535C220.115 115.351 220.681 115.441 221.216 115.597C221.105 115.433 220.986 115.27 220.852 115.113C219.803 113.886 218.233 113.186 216.544 113.186H141.894C140.205 113.186 138.635 113.886 137.586 115.113C136.694 116.155 136.284 117.464 136.441 118.789L141.842 164.51C142.08 166.541 143.606 168.178 145.615 168.773C145.205 168.156 144.93 167.449 144.833 166.675Z" fill="white"/>
</g>
<path d="M212.258 172.456H148.42C144.461 172.456 141.143 169.636 140.696 165.909L135.295 120.188C135.057 118.156 135.689 116.177 137.073 114.615C138.554 112.948 140.719 111.996 143.01 111.996H217.66C219.951 111.996 222.117 112.948 223.597 114.615C224.989 116.177 225.621 118.156 225.375 120.188L219.974 165.909C219.542 169.644 216.216 172.456 212.258 172.456ZM143.01 114.154C141.336 114.154 139.759 114.846 138.688 116.051C137.713 117.145 137.274 118.521 137.438 119.935L142.839 165.656C143.152 168.305 145.548 170.299 148.412 170.299H212.251C215.115 170.299 217.511 168.305 217.823 165.656L223.225 119.935C223.389 118.521 222.95 117.145 221.975 116.051C220.904 114.846 219.326 114.154 217.652 114.154H143.01Z" fill="#371A45"/>
<g opacity="0.35">
<path opacity="0.35" d="M112.423 180.12H250.502C252.734 180.12 254.542 178.253 254.542 175.946C254.542 173.64 252.734 171.772 250.502 171.772H194.907C192.712 173.007 176.239 180.686 108.242 178.699L112.423 180.12Z" fill="#371A45"/>
</g>
<g opacity="0.15">
<path opacity="0.15" d="M155.421 142.553H151.254C149.759 142.553 148.546 141.341 148.546 139.845V126.095C148.546 124.6 149.759 123.387 151.254 123.387H155.421C156.916 123.387 158.129 124.6 158.129 126.095V139.853C158.129 141.341 156.916 142.553 155.421 142.553Z" fill="white"/>
</g>
<path d="M185.547 146.452C185.562 146.445 185.57 146.445 185.584 146.437C185.979 146.274 186.343 146.698 186.12 147.062C185.48 148.104 184.513 148.96 183.278 149.451C180.495 150.559 177.266 149.369 175.882 146.72C174.282 143.662 175.622 139.935 178.739 138.573C179.915 138.06 181.172 137.955 182.34 138.208C182.727 138.29 182.779 138.818 182.422 138.975L182.407 138.982C180.257 139.92 179.335 142.494 180.458 144.607C181.41 146.415 183.642 147.226 185.547 146.452Z" fill="#371A45"/>
<path d="M244.311 60.1958C244.021 60.1958 243.738 60.0842 243.523 59.8684C243.165 59.5113 243.091 58.9532 243.351 58.5143L246.514 53.0902C247.243 51.8477 247.086 50.3001 246.134 49.2435C242.972 45.7465 241.216 41.2228 241.179 36.513C241.097 26.0221 249.564 17.3169 260.048 17.116C260.174 17.116 260.301 17.116 260.427 17.116C265.628 17.116 270.494 19.1546 274.147 22.8599C277.793 26.5652 279.757 31.4685 279.675 36.6693C279.512 47.1081 270.873 55.6051 260.427 55.6051H260.263C258.627 55.5902 257.005 55.367 255.435 54.9503C255.174 54.8833 254.906 54.8461 254.631 54.8461C254.073 54.8461 253.515 54.9949 253.031 55.2851L244.884 60.0395C244.698 60.1437 244.505 60.1958 244.311 60.1958Z" fill="#F92323"/>
<path d="M260.42 18.2321C270.531 18.2321 278.708 26.5133 278.552 36.6545C278.396 46.513 270.256 54.4891 260.42 54.4891C260.368 54.4891 260.315 54.4891 260.263 54.4891C258.693 54.4742 257.168 54.2584 255.717 53.8715C255.36 53.7748 254.988 53.7302 254.624 53.7302C253.872 53.7302 253.121 53.9311 252.458 54.318L244.311 59.0724L247.473 53.6483C248.433 51.9966 248.232 49.9133 246.953 48.4921C244.081 45.3151 242.325 41.1113 242.287 36.4983C242.213 26.6174 250.182 18.4181 260.063 18.2247C260.182 18.2321 260.301 18.2321 260.42 18.2321ZM260.42 16C260.286 16 260.152 16 260.018 16.0074C248.924 16.2232 239.966 25.427 240.055 36.528C240.093 41.5131 241.953 46.2972 245.301 50.0025C245.926 50.6945 246.03 51.7138 245.546 52.5397L242.384 57.9638C241.871 58.8417 242.02 59.9503 242.734 60.6646C243.165 61.0961 243.738 61.3194 244.311 61.3194C244.698 61.3194 245.085 61.2226 245.435 61.0143L253.582 56.2599C253.902 56.0739 254.259 55.9772 254.624 55.9772C254.795 55.9772 254.973 55.9995 255.137 56.0441C256.796 56.4906 258.515 56.7212 260.241 56.7361H260.42C271.476 56.7361 280.605 47.7481 280.784 36.6991C280.873 31.1933 278.797 26.0073 274.936 22.0862C271.074 18.1577 265.918 16 260.42 16Z" fill="#371A45"/>
<g opacity="0.2">
<path opacity="0.2" d="M278.53 35.5235C278.522 35.3226 278.507 35.1292 278.492 34.9283C278.485 34.8241 278.477 34.7274 278.47 34.6232C278.448 34.4224 278.425 34.2215 278.403 34.028C278.396 33.9387 278.381 33.8569 278.373 33.7676C278.336 33.5072 278.291 33.2468 278.239 32.9864C278.217 32.8748 278.195 32.7631 278.172 32.6515C278.143 32.4953 278.105 32.3465 278.068 32.1902C278.038 32.0563 278.001 31.9224 277.972 31.7885C277.942 31.662 277.905 31.5429 277.867 31.4164C277.823 31.2751 277.786 31.1263 277.741 30.9849C277.711 30.8956 277.681 30.8138 277.659 30.7319C277.547 30.3971 277.436 30.0697 277.302 29.7498C277.287 29.7052 277.265 29.6605 277.25 29.6084C277.175 29.4299 277.101 29.2513 277.027 29.0727C277.004 29.0206 276.982 28.9686 276.952 28.909C276.87 28.723 276.781 28.5445 276.692 28.3584C276.684 28.3436 276.677 28.3287 276.669 28.3138C276.26 27.4954 275.791 26.7067 275.271 25.9626C276.163 28.1501 276.64 30.5534 276.595 33.0757C276.461 41.5428 270.434 48.6186 262.503 50.4489C254.095 52.309 249.2 50.7391 246.223 47.8002C246.209 47.7853 245.018 44.9356 245.003 44.9207C244.505 44.3701 244.043 43.7824 243.612 43.1722C243.679 43.3359 243.753 43.5071 243.82 43.6708C243.82 43.6708 243.82 43.6708 243.813 43.6633C244.601 45.4416 245.658 47.071 246.945 48.4921C248.225 49.9132 248.426 51.9965 247.466 53.6483L244.304 59.0723L252.451 54.3179C253.433 53.745 254.609 53.5813 255.71 53.8715C257.161 54.2584 258.686 54.4742 260.256 54.4891C260.539 54.4891 260.821 54.4891 261.104 54.4742C261.365 54.4667 261.625 54.4444 261.885 54.4221C261.923 54.4221 261.967 54.4147 262.004 54.4147C262.243 54.3923 262.481 54.3626 262.711 54.3328C262.771 54.3254 262.83 54.3179 262.89 54.3105C263.113 54.2807 263.329 54.2435 263.552 54.2063C263.626 54.1915 263.693 54.184 263.768 54.1691C263.976 54.1319 264.184 54.0873 264.385 54.0352C264.467 54.0203 264.549 53.998 264.623 53.9831C264.824 53.9385 265.018 53.879 265.211 53.8269C265.301 53.8046 265.382 53.7822 265.472 53.7525C265.658 53.7004 265.844 53.6334 266.03 53.5739C266.119 53.5441 266.208 53.5144 266.298 53.4846C266.476 53.4251 266.655 53.3581 266.833 53.2837C266.923 53.2465 267.019 53.2168 267.109 53.1796C267.28 53.1126 267.451 53.0382 267.622 52.9638C267.719 52.9191 267.808 52.8819 267.905 52.8373C268.068 52.7629 268.232 52.6811 268.396 52.5992C268.492 52.5546 268.589 52.5025 268.686 52.4578C268.842 52.376 268.998 52.2942 269.155 52.2049C269.251 52.1528 269.348 52.1007 269.445 52.0412C269.594 51.9519 269.742 51.8626 269.891 51.7733C269.988 51.7138 270.085 51.6543 270.181 51.5948C270.323 51.5055 270.464 51.4088 270.606 51.312C270.702 51.2451 270.799 51.1781 270.896 51.1111C271.03 51.0144 271.164 50.9177 271.297 50.8135C271.394 50.7391 271.483 50.6722 271.58 50.5978C271.707 50.4936 271.833 50.3894 271.96 50.2853C272.056 50.2108 272.146 50.129 272.242 50.0472C272.361 49.943 272.488 49.8314 272.607 49.7272C272.696 49.6454 272.793 49.5561 272.882 49.4743C272.994 49.3627 273.113 49.251 273.225 49.1394C273.314 49.0502 273.403 48.9609 273.492 48.8641C273.604 48.7525 273.708 48.6409 273.812 48.5219C273.902 48.4252 273.983 48.3284 274.073 48.2317C274.177 48.1127 274.274 48.0011 274.37 47.882C274.452 47.7778 274.534 47.6737 274.616 47.577C274.713 47.4579 274.802 47.3389 274.899 47.2198C274.98 47.1157 275.062 47.004 275.137 46.8924C275.226 46.7734 275.315 46.6469 275.397 46.5279C275.472 46.4163 275.553 46.2972 275.628 46.1856C275.71 46.0591 275.791 45.9401 275.866 45.8136C275.94 45.6945 276.007 45.5755 276.082 45.449C276.156 45.3225 276.23 45.196 276.297 45.0695C276.364 44.9431 276.431 44.8166 276.498 44.6901C276.565 44.5636 276.632 44.4371 276.699 44.3106C276.766 44.1767 276.826 44.0502 276.885 43.9163C276.945 43.7898 277.004 43.6559 277.064 43.5294C277.123 43.3955 277.175 43.2541 277.235 43.1202C277.287 42.9937 277.339 42.8597 277.391 42.7333C277.443 42.5919 277.495 42.4505 277.547 42.3017C277.592 42.1678 277.644 42.0413 277.681 41.9074C277.726 41.7586 277.771 41.6098 277.815 41.461C277.852 41.327 277.897 41.2006 277.934 41.0666C277.979 40.9104 278.009 40.7541 278.053 40.5979C278.083 40.4714 278.12 40.3375 278.15 40.211C278.187 40.0473 278.217 39.8836 278.247 39.7199C278.269 39.5934 278.299 39.4669 278.321 39.3404C278.351 39.1693 278.373 38.9908 278.396 38.8196C278.41 38.7006 278.433 38.5815 278.448 38.455C278.47 38.2616 278.485 38.0607 278.5 37.8598C278.507 37.7556 278.522 37.6589 278.53 37.5548C278.552 37.2497 278.559 36.9521 278.567 36.647C278.574 36.3569 278.567 36.0667 278.559 35.784C278.537 35.7021 278.53 35.6128 278.53 35.5235Z" fill="#102770"/>
</g>
<g opacity="0.5">
<g opacity="0.5">
<path opacity="0.5" d="M268.969 31.0889C266.982 29.1024 263.656 29.1544 261.395 31.1485C260.383 30.2556 259.125 29.7125 257.808 29.6232C256.283 29.519 254.869 30.0398 253.828 31.0815C251.663 33.2467 251.663 36.7734 253.828 38.9385L259.944 45.0545C260.331 45.4414 260.851 45.6572 261.402 45.6572C261.953 45.6572 262.473 45.4414 262.86 45.0545L268.976 38.9385C271.134 36.7808 271.134 33.2541 268.969 31.0889Z" fill="white"/>
</g>
</g>
<g opacity="0.5">
<g opacity="0.5">
<path opacity="0.5" d="M243.263 37.8077C243.188 27.9268 251.157 19.7275 261.038 19.5341C266.811 19.4225 271.99 22.0117 275.383 26.1263C272.057 21.2677 266.424 18.113 260.063 18.232C250.19 18.4255 242.213 26.6248 242.288 36.5056C242.325 40.821 243.865 44.7719 246.41 47.8596C244.453 44.9951 243.292 41.5353 243.263 37.8077Z" fill="white"/>
</g>
</g>
<path d="M253.426 30.6872C255.279 28.8346 258.284 29.1694 260.137 31.022L260.427 31.3122L260.717 31.022C262.57 29.1694 265.576 28.8346 267.429 30.6872C269.281 32.5399 269.281 35.5458 267.429 37.3984L267.138 37.6886L261.313 43.5144C260.822 44.0055 260.033 44.0055 259.542 43.5144L253.716 37.6886L253.426 37.3984C251.573 35.5458 251.573 32.5399 253.426 30.6872Z" fill="white"/>
<path d="M260.42 44.6231C259.906 44.6231 259.4 44.4296 259.006 44.0427L252.89 37.9267C251.856 36.8925 251.283 35.5086 251.283 34.0428C251.283 32.5771 251.856 31.2006 252.89 30.1664C254.869 28.1873 258.18 28.2617 260.412 30.2706C262.644 28.2542 265.955 28.1873 267.934 30.1664C270.077 32.3092 270.077 35.7839 267.934 37.9267L261.818 44.0427C261.439 44.4222 260.933 44.6231 260.42 44.6231ZM256.476 30.2036C255.539 30.2036 254.631 30.5384 253.954 31.2155C253.195 31.9744 252.786 32.9714 252.786 34.0428C252.786 35.1142 253.202 36.1187 253.954 36.8702L260.07 42.9862C260.271 43.1871 260.591 43.1871 260.784 42.9862L266.9 36.8702C268.463 35.3077 268.463 32.7705 266.9 31.2155C265.434 29.7497 262.897 29.8985 261.245 31.5503L260.955 31.8405C260.665 32.1307 260.196 32.1307 259.906 31.8405L259.616 31.5503C258.716 30.6575 257.57 30.2036 256.476 30.2036Z" fill="#371A45"/>
<defs>
<linearGradient id="paint0_linear" x1="15" y1="181" x2="15" y2="200" gradientUnits="userSpaceOnUse">
<stop stop-color="white" stop-opacity="0.25"/>
<stop offset="1" stop-color="white" stop-opacity="0"/>
</linearGradient>
<linearGradient id="paint1_linear" x1="111" y1="136" x2="111" y2="200" gradientUnits="userSpaceOnUse">
<stop stop-color="white" stop-opacity="0.25"/>
<stop offset="1" stop-color="white" stop-opacity="0"/>
</linearGradient>
<linearGradient id="paint2_linear" x1="207" y1="151" x2="207" y2="200" gradientUnits="userSpaceOnUse">
<stop stop-color="white" stop-opacity="0.25"/>
<stop offset="1" stop-color="white" stop-opacity="0"/>
</linearGradient>
<linearGradient id="paint3_linear" x1="63" y1="162" x2="63" y2="200" gradientUnits="userSpaceOnUse">
<stop stop-color="white" stop-opacity="0.25"/>
<stop offset="1" stop-color="white" stop-opacity="0"/>
</linearGradient>
<linearGradient id="paint4_linear" x1="159" y1="151" x2="159" y2="200" gradientUnits="userSpaceOnUse">
<stop stop-color="white" stop-opacity="0.25"/>
<stop offset="1" stop-color="white" stop-opacity="0"/>
</linearGradient>
<linearGradient id="paint5_linear" x1="255" y1="96" x2="255" y2="200" gradientUnits="userSpaceOnUse">
<stop stop-color="white" stop-opacity="0.25"/>
<stop offset="1" stop-color="white" stop-opacity="0"/>
</linearGradient>
<linearGradient id="paint6_linear" x1="327" y1="85" x2="327" y2="200" gradientUnits="userSpaceOnUse">
<stop stop-color="white" stop-opacity="0.25"/>
<stop offset="1" stop-color="white" stop-opacity="0"/>
</linearGradient>
<linearGradient id="paint7_linear" x1="39" y1="168" x2="39" y2="200" gradientUnits="userSpaceOnUse">
<stop stop-color="white" stop-opacity="0.25"/>
<stop offset="1" stop-color="white" stop-opacity="0"/>
</linearGradient>
<linearGradient id="paint8_linear" x1="135" y1="116" x2="135" y2="200" gradientUnits="userSpaceOnUse">
<stop stop-color="white" stop-opacity="0.25"/>
<stop offset="1" stop-color="white" stop-opacity="0"/>
</linearGradient>
<linearGradient id="paint9_linear" x1="231" y1="108" x2="231" y2="200" gradientUnits="userSpaceOnUse">
<stop stop-color="white" stop-opacity="0.25"/>
<stop offset="1" stop-color="white" stop-opacity="0"/>
</linearGradient>
<linearGradient id="paint10_linear" x1="303" y1="105" x2="303" y2="200" gradientUnits="userSpaceOnUse">
<stop stop-color="white" stop-opacity="0.25"/>
<stop offset="1" stop-color="white" stop-opacity="0"/>
</linearGradient>
<linearGradient id="paint11_linear" x1="87" y1="168" x2="87" y2="200" gradientUnits="userSpaceOnUse">
<stop stop-color="white" stop-opacity="0.25"/>
<stop offset="1" stop-color="white" stop-opacity="0"/>
</linearGradient>
<linearGradient id="paint12_linear" x1="183" y1="151" x2="183" y2="200" gradientUnits="userSpaceOnUse">
<stop stop-color="white" stop-opacity="0.25"/>
<stop offset="1" stop-color="white" stop-opacity="0"/>
</linearGradient>
<linearGradient id="paint13_linear" x1="279" y1="124" x2="279" y2="200" gradientUnits="userSpaceOnUse">
<stop stop-color="white" stop-opacity="0.25"/>
<stop offset="1" stop-color="white" stop-opacity="0"/>
</linearGradient>
<linearGradient id="paint14_linear" x1="351" y1="64" x2="351" y2="200" gradientUnits="userSpaceOnUse">
<stop stop-color="white" stop-opacity="0.25"/>
<stop offset="1" stop-color="white" stop-opacity="0"/>
</linearGradient>
</defs>
</svg>
