<svg width="359" height="200" viewBox="0 0 359 200" fill="none" xmlns="http://www.w3.org/2000/svg">
<path d="M0 5.99999C0 2.68629 2.68629 0 6 0H353C356.314 0 359 2.68629 359 6V200H0V5.99999Z" fill="#4200AE"/>
<path d="M246.653 71.9483C248.061 71.9483 249.203 70.8066 249.203 69.3982C249.203 67.9899 248.061 66.8481 246.653 66.8481C245.245 66.8481 244.103 67.9899 244.103 69.3982C244.103 70.8066 245.245 71.9483 246.653 71.9483Z" fill="white"/>
<path d="M311.024 124.99C312.433 124.99 313.574 126.132 313.574 127.54C313.574 128.948 312.433 130.09 311.024 130.09C309.616 130.09 308.474 128.948 308.474 127.54C308.474 126.132 309.616 124.99 311.024 124.99Z" fill="white"/>
<path d="M35.0242 124.99C36.4326 124.99 37.5743 126.132 37.5743 127.54C37.5743 128.948 36.4326 130.09 35.0242 130.09C33.6158 130.09 32.4741 128.948 32.4741 127.54C32.4741 126.132 33.6158 124.99 35.0242 124.99Z" fill="white"/>
<path d="M237.541 105.446C238.193 105.446 238.721 104.917 238.721 104.265C238.721 103.614 238.193 103.085 237.541 103.085C236.889 103.085 236.361 103.614 236.361 104.265C236.361 104.917 236.889 105.446 237.541 105.446Z" fill="white"/>
<path d="M271.348 89.6311C271.999 89.6311 272.528 89.1027 272.528 88.4508C272.528 87.7989 271.999 87.2705 271.348 87.2705C270.696 87.2705 270.167 87.7989 270.167 88.4508C270.167 89.1027 270.696 89.6311 271.348 89.6311Z" fill="white"/>
<path d="M335.719 107.307C336.37 107.307 336.899 107.836 336.899 108.487C336.899 109.139 336.37 109.668 335.719 109.668C335.067 109.668 334.538 109.139 334.538 108.487C334.538 107.836 335.067 107.307 335.719 107.307Z" fill="white"/>
<path d="M59.7186 107.307C60.3705 107.307 60.8989 107.836 60.8989 108.487C60.8989 109.139 60.3705 109.668 59.7186 109.668C59.0668 109.668 58.5383 109.139 58.5383 108.487C58.5383 107.836 59.0668 107.307 59.7186 107.307Z" fill="white"/>
<path d="M258.722 42.7493C259.373 42.7493 259.902 42.2208 259.902 41.569C259.902 40.9171 259.373 40.3887 258.722 40.3887C258.07 40.3887 257.541 40.9171 257.541 41.569C257.541 42.2208 258.07 42.7493 258.722 42.7493Z" fill="white"/>
<path d="M323.093 154.189C323.744 154.189 324.273 154.717 324.273 155.369C324.273 156.021 323.744 156.549 323.093 156.549C322.441 156.549 321.912 156.021 321.912 155.369C321.912 154.717 322.441 154.189 323.093 154.189Z" fill="white"/>
<path d="M47.0926 154.189C47.7445 154.189 48.2729 154.717 48.2729 155.369C48.2729 156.021 47.7445 156.549 47.0926 156.549C46.4408 156.549 45.9124 156.021 45.9124 155.369C45.9124 154.717 46.4408 154.189 47.0926 154.189Z" fill="white"/>
<path d="M232.809 20.7678C233.461 20.7678 233.99 20.2394 233.99 19.5875C233.99 18.9357 233.461 18.4072 232.809 18.4072C232.157 18.4072 231.629 18.9357 231.629 19.5875C231.629 20.2394 232.157 20.7678 232.809 20.7678Z" fill="white"/>
<path d="M297.18 176.17C297.832 176.17 298.361 176.699 298.361 177.351C298.361 178.003 297.832 178.531 297.18 178.531C296.528 178.531 296 178.003 296 177.351C296 176.699 296.528 176.17 297.18 176.17Z" fill="white"/>
<path d="M21.1803 176.17C21.8322 176.17 22.3606 176.699 22.3606 177.351C22.3606 178.003 21.8322 178.531 21.1803 178.531C20.5284 178.531 20 178.003 20 177.351C20 176.699 20.5284 176.17 21.1803 176.17Z" fill="white"/>
<path d="M98.6183 119.929C99.5931 119.929 100.383 119.139 100.383 118.164C100.383 117.189 99.5931 116.399 98.6183 116.399C97.6435 116.399 96.8533 117.189 96.8533 118.164C96.8533 119.139 97.6435 119.929 98.6183 119.929Z" fill="white"/>
<path d="M95.1803 84.6011C95.8322 84.6011 96.3606 84.0726 96.3606 83.4208C96.3606 82.7689 95.8322 82.2405 95.1803 82.2405C94.5284 82.2405 94 82.7689 94 83.4208C94 84.0726 94.5284 84.6011 95.1803 84.6011Z" fill="white"/>
<path d="M117.904 69.2031C118.556 69.2031 119.084 68.6747 119.084 68.0228C119.084 67.371 118.556 66.8425 117.904 66.8425C117.252 66.8425 116.723 67.371 116.723 68.0228C116.723 68.6747 117.252 69.2031 117.904 69.2031Z" fill="white"/>
<path d="M140.93 98.9055C141.582 98.9055 142.111 98.3771 142.111 97.7252C142.111 97.0734 141.582 96.5449 140.93 96.5449C140.278 96.5449 139.75 97.0734 139.75 97.7252C139.75 98.3771 140.278 98.9055 140.93 98.9055Z" fill="white"/>
<path d="M106.42 41.8235C107.072 41.8235 107.6 41.295 107.6 40.6432C107.6 39.9913 107.072 39.4629 106.42 39.4629C105.768 39.4629 105.24 39.9913 105.24 40.6432C105.24 41.295 105.768 41.8235 106.42 41.8235Z" fill="white"/>
<path d="M264.258 148.438C264.861 148.188 265.147 147.498 264.897 146.896C264.648 146.293 263.957 146.007 263.355 146.257C262.753 146.506 262.467 147.197 262.716 147.799C262.966 148.401 263.656 148.687 264.258 148.438Z" fill="white"/>
<path d="M328.629 48.5005C329.232 48.75 329.518 49.4404 329.268 50.0427C329.019 50.6449 328.328 50.9309 327.726 50.6814C327.124 50.432 326.838 49.7415 327.087 49.1393C327.337 48.537 328.027 48.251 328.629 48.5005Z" fill="white"/>
<path d="M52.6294 48.5005C53.2316 48.75 53.5176 49.4404 53.2682 50.0427C53.0187 50.6449 52.3282 50.9309 51.726 50.6814C51.1237 50.432 50.8377 49.7415 51.0872 49.1393C51.3367 48.537 52.0271 48.251 52.6294 48.5005Z" fill="white"/>
<path d="M247.92 178.938C248.572 178.938 249.1 178.41 249.1 177.758C249.1 177.106 248.572 176.578 247.92 176.578C247.268 176.578 246.74 177.106 246.74 177.758C246.74 178.41 247.268 178.938 247.92 178.938Z" fill="white"/>
<path d="M312.291 18C312.943 18 313.471 18.5284 313.471 19.1803C313.471 19.8322 312.943 20.3606 312.291 20.3606C311.639 20.3606 311.111 19.8322 311.111 19.1803C311.111 18.5284 311.639 18 312.291 18Z" fill="white"/>
<path d="M36.2911 18C36.943 18 37.4714 18.5284 37.4714 19.1803C37.4714 19.8322 36.943 20.3606 36.2911 20.3606C35.6393 20.3606 35.1108 19.8322 35.1108 19.1803C35.1108 18.5284 35.6393 18 36.2911 18Z" fill="white"/>
<path d="M139.837 16.3606C140.488 16.3606 141.017 15.8322 141.017 15.1803C141.017 14.5284 140.488 14 139.837 14C139.185 14 138.656 14.5284 138.656 15.1803C138.656 15.8322 139.185 16.3606 139.837 16.3606Z" fill="white"/>
<path d="M213.199 162.295C213.851 162.295 214.379 161.766 214.379 161.115C214.379 160.463 213.851 159.934 213.199 159.934C212.547 159.934 212.019 160.463 212.019 161.115C212.019 161.766 212.547 162.295 213.199 162.295Z" fill="white"/>
<path d="M171.185 183.329C171.837 183.329 172.365 182.801 172.365 182.149C172.365 181.497 171.837 180.969 171.185 180.969C170.533 180.969 170.004 181.497 170.004 182.149C170.004 182.801 170.533 183.329 171.185 183.329Z" fill="white"/>
<path d="M133.713 175.365C134.365 175.365 134.894 174.836 134.894 174.184C134.894 173.533 134.365 173.004 133.713 173.004C133.061 173.004 132.533 173.533 132.533 174.184C132.533 174.836 133.061 175.365 133.713 175.365Z" fill="white"/>
<path d="M103.62 183.095C104.081 182.634 104.081 181.887 103.62 181.426C103.159 180.965 102.411 180.965 101.951 181.426C101.49 181.887 101.49 182.634 101.951 183.095C102.411 183.556 103.159 183.556 103.62 183.095Z" fill="white"/>
<path d="M233.929 128.456C233.777 130.141 233.545 131.82 233.241 133.479C233.122 134.147 232.99 134.808 232.845 135.469C232.144 138.714 231.159 141.886 229.917 144.96C224.523 158.284 214.199 169.633 200.068 176.024C185.911 182.429 170.531 182.673 156.942 177.895C153.961 176.844 151.059 175.555 148.283 174.028C147.715 173.718 147.153 173.4 146.591 173.063C145.012 172.131 143.472 171.12 141.985 170.036C156.208 166.46 172.646 160.69 189.659 152.997C206.665 145.31 221.853 136.771 233.929 128.456Z" fill="#FFB200"/>
<path d="M189.652 153.004C206.665 145.31 221.847 136.777 233.929 128.456C233.711 130.822 233.354 133.162 232.845 135.475C223.552 142.23 208.701 150.565 191.404 158.384C174.84 165.872 159.401 171.371 148.277 174.035C146.096 172.845 143.994 171.51 141.978 170.043C156.202 166.46 172.639 160.697 189.652 153.004Z" fill="#D66B09"/>
<path d="M231.576 106.07C222.144 113.697 203.512 124.372 181.258 134.438C159.004 144.497 138.68 151.437 126.724 153.486C125.481 151.457 124.351 149.322 123.347 147.095C123.3 146.989 123.247 146.89 123.208 146.778C122.772 145.793 122.362 144.808 121.985 143.81C121.099 141.483 120.366 139.131 119.797 136.764C119.771 136.665 119.751 136.573 119.725 136.48C118.892 132.964 118.403 129.415 118.244 125.885C117.933 119.17 118.806 112.501 120.749 106.176C122.196 101.47 124.239 96.9491 126.83 92.7455C132.686 83.2411 141.344 75.3164 152.289 70.3659C153.38 69.8768 154.47 69.4207 155.574 68.9977C170.313 63.3731 186.097 64.1728 199.653 70.1742C199.738 70.2139 199.824 70.2469 199.91 70.2932C205.793 72.9237 211.245 76.5391 216.011 81.0269C217.842 82.7586 219.573 84.6158 221.173 86.5987C221.616 87.1407 222.045 87.6892 222.462 88.2444C222.634 88.4692 222.799 88.6939 222.964 88.9186C223.004 88.9781 223.05 89.0376 223.096 89.097C223.268 89.335 223.44 89.5663 223.605 89.8109C225.006 91.8069 226.289 93.9087 227.452 96.1097C227.881 96.9226 228.298 97.7554 228.694 98.6014C228.8 98.8328 228.906 99.0641 229.012 99.302C230.01 101.529 230.869 103.79 231.576 106.07Z" fill="#FFB200"/>
<path d="M228.688 98.6079C228.8 98.8392 228.906 99.0706 229.011 99.3019C230.016 101.529 230.875 103.79 231.583 106.063C222.151 113.691 203.519 124.372 181.265 134.431C159.011 144.497 138.687 151.437 126.73 153.479C125.488 151.444 124.358 149.316 123.346 147.088C123.3 146.982 123.254 146.883 123.208 146.778C134.543 145.522 155.23 138.813 177.92 128.549C201.496 117.888 220.776 106.308 228.688 98.6079Z" fill="#D66B09"/>
<path d="M119.024 126.949C118.733 126.949 118.449 126.943 118.184 126.929L118.29 124.847C126.327 125.264 147.167 118.661 168.978 108.8C191.966 98.4031 211.364 86.4928 215.112 80.4849L216.883 81.5886C212.884 88.013 193.539 99.9827 169.837 110.703C148.118 120.518 127.966 126.949 119.024 126.949Z" fill="#D66B09"/>
<path d="M120.894 107.214L120.59 105.151C129.552 103.823 145.058 98.5023 161.053 91.2649C177.815 83.6839 192.336 75.3031 198.952 69.4009L200.34 70.9541C193.578 76.9951 178.852 85.5015 161.912 93.1684C145.752 100.472 130.042 105.852 120.894 107.214Z" fill="#D66B09"/>
<path d="M119.803 137.524C119.77 137.524 119.744 137.524 119.711 137.524L119.724 135.436C119.751 135.436 119.784 135.436 119.81 135.436C129.043 135.436 150.491 128.542 173.254 118.245C197.213 107.405 217.365 95.1712 222.243 88.4824L223.929 89.7118C218.773 96.7707 198.753 108.998 174.113 120.142C151.112 130.552 129.314 137.524 119.803 137.524Z" fill="#D66B09"/>
<path d="M156.975 178.417L156.935 177.901L156.698 177.432L156.79 177.386L156.896 177.379C164.913 176.804 179.566 172.065 195.145 165.02C210.571 158.04 223.75 150.214 229.547 144.59L230.274 145.337C224.398 151.041 211.1 158.946 195.574 165.971C179.897 173.063 165.105 177.835 156.975 178.417Z" fill="#D66B09"/>
<path d="M176.209 182.171C163.895 182.171 151.655 178.331 141.39 170.856L139.645 169.587L141.734 169.058C156.407 165.37 172.831 159.494 189.236 152.079C205.634 144.663 220.895 136.203 233.354 127.624L235.132 126.401L234.934 128.549C232.99 149.673 219.791 168.219 200.485 176.95C192.739 180.453 184.457 182.171 176.209 182.171ZM144.358 170.473C160.683 181.438 181.668 183.242 199.652 175.112C217.637 166.976 230.135 150.023 232.68 130.532C220.472 138.754 205.786 146.817 190.069 153.929C174.345 161.028 158.595 166.732 144.358 170.473Z" fill="#000072"/>
<path d="M224.444 126.487C224.491 126.586 224.524 126.685 224.543 126.791L224.444 126.487Z" fill="#D66B09"/>
<path d="M262.369 93.2345C265.872 100.974 254.332 114.411 233.929 128.456C221.853 136.771 206.665 145.31 189.652 153.004C172.639 160.697 156.202 166.467 141.978 170.043C117.959 176.084 100.246 175.879 96.7496 168.139C93.5705 161.114 102.791 149.388 119.784 136.771C120.359 139.137 121.086 141.49 121.971 143.817C117.272 147.657 114.959 150.704 115.765 152.482C116.585 154.293 120.53 154.544 126.717 153.486C138.673 151.444 158.997 144.504 181.251 134.438C203.505 124.372 222.137 113.697 231.569 106.07C236.447 102.124 238.866 98.9914 238.046 97.1804C237.247 95.4024 233.426 95.1248 227.438 96.1162C226.275 93.9087 224.993 91.8135 223.591 89.8174C244.292 85.3891 259.19 86.2021 262.369 93.2345Z" fill="#FFD766"/>
<path d="M118.435 159.322C114.166 159.322 110.881 158.47 109.83 156.137C108.296 152.752 111.925 147.551 120.597 140.67L121.568 141.893C113.868 148 110.107 152.957 111.257 155.489C112.593 158.443 122.216 159.448 144.952 152.574C156.559 149.064 169.685 144.041 182.904 138.066C196.123 132.085 208.562 125.548 218.866 119.15C239.044 106.619 244.643 98.7269 243.307 95.7725C242.164 93.2411 235.958 92.785 226.288 94.5365L226.011 92.9965C236.903 91.0269 243.202 91.7407 244.735 95.1248C247.855 102.025 228.264 115.151 219.692 120.479C209.328 126.91 196.836 133.486 183.552 139.494C170.267 145.502 157.074 150.545 145.402 154.074C138.997 156.018 126.823 159.322 118.435 159.322Z" fill="#FFEC90"/>
<path d="M115.415 167.194C108.369 167.194 103.875 165.581 102.421 162.363C100.055 157.134 106.254 148.569 119.87 138.245L120.815 139.494C108.026 149.19 101.839 157.293 103.842 161.721C106.32 167.201 121.35 166.897 143.062 160.928C156.281 157.293 171.152 151.814 186.063 145.066C200.968 138.324 214.907 130.783 226.368 123.248C245.191 110.882 255.343 99.7976 252.865 94.3183C250.862 89.89 240.697 89.1828 224.966 92.3818L224.656 90.8484C241.404 87.4445 251.926 88.4426 254.293 93.6706C257.194 100.088 247.326 111.344 227.227 124.55C215.7 132.124 201.688 139.705 186.711 146.48C171.727 153.255 156.783 158.767 143.479 162.422C131.925 165.601 122.408 167.187 115.415 167.194Z" fill="#FFEC90"/>
<path d="M113.564 175.317C104.027 175.317 97.8669 173.05 95.8312 168.549C94.1128 164.749 95.4809 159.838 99.896 153.942C103.934 148.549 110.603 142.329 119.182 135.958L120.405 135.046L120.762 136.526C121.33 138.866 122.051 141.199 122.917 143.446L123.174 144.127L122.613 144.59C116.149 149.877 116.539 151.741 116.684 152.058C116.829 152.389 118.006 153.942 126.545 152.488C138.779 150.393 159.579 143.123 180.835 133.512C202.085 123.902 221.285 113.083 230.935 105.277C237.67 99.8241 237.273 97.9139 237.128 97.5901C236.982 97.2728 235.846 95.746 227.61 97.1076L226.89 97.2266L226.553 96.5788C225.429 94.444 224.16 92.362 222.772 90.3924L221.893 89.1432L223.387 88.826C233.836 86.592 242.911 85.6865 249.633 86.2152C256.976 86.7969 261.57 89.011 263.288 92.8115C266.936 100.882 256.447 114.173 234.504 129.282C221.946 137.934 206.579 146.447 190.075 153.916C173.565 161.384 157.021 167.293 142.236 171.014C130.802 173.896 121.119 175.317 113.564 175.317ZM119.182 138.483C102.95 150.763 94.9257 161.649 97.6686 167.723C100.782 174.603 117.662 175.119 141.734 169.065C156.407 165.377 172.831 159.501 189.236 152.085C205.634 144.669 220.895 136.209 233.354 127.63C253.797 113.552 264.557 100.538 261.444 93.6508C258.694 87.5768 245.224 86.4201 225.284 90.4981C226.255 91.9588 227.161 93.4658 227.994 95.0058C234.398 94.0276 237.994 94.6026 238.965 96.7639C240.01 99.0706 237.861 102.276 232.204 106.857C222.283 114.88 203.387 125.541 181.668 135.363C159.943 145.185 139.467 152.336 126.889 154.491C119.718 155.714 115.891 155.211 114.847 152.905C113.855 150.717 115.739 147.716 120.775 143.506C120.174 141.854 119.638 140.175 119.182 138.483Z" fill="#390075"/>
<g opacity="0.41">
<g opacity="0.41">
<g opacity="0.41">
<path opacity="0.41" d="M231.576 106.063C230.479 106.949 229.256 107.881 227.921 108.846C227.379 107.319 226.771 105.806 226.09 104.305C225.984 104.074 225.879 103.843 225.766 103.611C225.37 102.765 224.96 101.933 224.524 101.113C223.367 98.912 222.078 96.8102 220.677 94.8142C220.512 94.5762 220.34 94.3383 220.168 94.1004C218.04 91.1592 215.661 88.4625 213.076 86.0236C208.245 81.4697 202.706 77.8081 196.724 75.1709C182.157 68.7267 165.012 68.2773 149.361 75.3626C138.912 80.0883 130.544 87.5306 124.708 96.4732C130.491 85.3098 139.93 75.9442 152.283 70.3592C167.934 63.2805 185.079 63.73 199.639 70.1676C205.621 72.8114 211.166 76.4664 215.998 81.0269C218.582 83.4592 220.961 86.1558 223.09 89.097C223.268 89.335 223.433 89.5729 223.598 89.8108C225 91.8069 226.282 93.9021 227.445 96.103C227.875 96.9226 228.291 97.7554 228.688 98.6014C228.8 98.8327 228.906 99.064 229.012 99.302C230.01 101.529 230.869 103.79 231.576 106.063Z" fill="white"/>
</g>
</g>
</g>
<path d="M126.221 154.597L125.864 154.015C124.595 151.94 123.439 149.752 122.427 147.511C121.932 146.408 121.462 145.291 121.039 144.174C120.147 141.84 119.4 139.428 118.812 137.009C112.17 109.534 126.069 81.1195 151.872 69.4472C177.669 57.7816 208.185 66.1029 224.438 89.2359C225.872 91.2782 227.187 93.4329 228.35 95.6405C228.906 96.6914 229.441 97.7819 229.937 98.8857C230.948 101.126 231.827 103.44 232.547 105.766L232.752 106.42L232.217 106.85C222.296 114.874 203.4 125.535 181.681 135.357C159.956 145.178 139.48 152.33 126.902 154.484L126.221 154.597ZM176.149 66.2218C168.251 66.2218 160.266 67.861 152.692 71.2847C127.774 82.5538 114.351 109.99 120.762 136.526C121.33 138.866 122.051 141.199 122.91 143.447C123.32 144.524 123.769 145.608 124.252 146.672C125.137 148.628 126.135 150.538 127.219 152.369C139.533 150.129 159.962 142.951 180.828 133.513C201.694 124.074 220.578 113.473 230.393 105.707C229.738 103.684 228.958 101.675 228.079 99.7185C227.597 98.6544 227.081 97.6035 226.546 96.5856C225.422 94.4508 224.153 92.3688 222.765 90.3992C211.853 74.8405 194.246 66.2218 176.149 66.2218Z" fill="#390075"/>
<path d="M235.555 59.8238C235.555 62.3552 235.152 64.7148 234.458 66.7108C233.731 68.7928 232.68 70.4782 231.431 71.5357C230.512 72.3156 229.481 72.7519 228.397 72.7519C224.445 72.7519 221.246 66.9686 221.246 59.8304C221.246 52.6922 224.451 46.9089 228.397 46.9089C229.481 46.9089 230.512 47.3452 231.431 48.1251C232.68 49.176 233.731 50.8614 234.458 52.95C235.152 54.9328 235.555 57.2924 235.555 59.8238Z" fill="white"/>
<path d="M228.397 72.9104C224.358 72.9104 221.08 67.0413 221.08 59.8238C221.08 52.6062 224.365 46.7371 228.397 46.7371C229.501 46.7371 230.558 47.1601 231.536 47.9929C232.805 49.0636 233.869 50.7556 234.61 52.8904C235.337 54.9592 235.72 57.3584 235.72 59.8304C235.72 62.2957 235.337 64.6949 234.61 66.7703C233.863 68.9051 232.799 70.5971 231.536 71.6613C230.558 72.4874 229.501 72.9104 228.397 72.9104ZM228.397 47.0675C224.543 47.0675 221.411 52.7913 221.411 59.8238C221.411 66.8562 224.543 72.58 228.397 72.58C229.421 72.58 230.406 72.1834 231.325 71.4035C232.547 70.3724 233.579 68.7267 234.306 66.6513C235.019 64.6156 235.396 62.256 235.396 59.8238C235.396 57.3915 235.019 55.0319 234.306 52.9962C233.579 50.9208 232.547 49.2751 231.331 48.244C230.406 47.4641 229.421 47.0675 228.397 47.0675Z" fill="#390075"/>
<path d="M241.616 59.8238C241.616 66.962 238.41 72.7453 234.458 72.7453H228.397C229.481 72.7453 230.512 72.3091 231.43 71.5292C232.68 70.4783 233.731 68.7929 234.458 66.7043C235.152 64.7148 235.555 62.3553 235.555 59.8172C235.555 57.2792 235.152 54.9262 234.458 52.9302C233.731 50.8416 232.68 49.1562 231.43 48.1053C230.512 47.3254 229.481 46.8892 228.397 46.8892H234.458C238.41 46.9024 241.616 52.6856 241.616 59.8238Z" fill="white"/>
<path d="M234.458 72.9104H228.397V72.58C229.421 72.58 230.406 72.1834 231.325 71.4035C232.548 70.3724 233.579 68.7267 234.306 66.6513C235.02 64.6156 235.396 62.256 235.396 59.8238C235.396 57.3915 235.02 55.0319 234.306 52.9962C233.579 50.9208 232.548 49.2751 231.332 48.244C230.413 47.4641 229.428 47.0675 228.404 47.0675V46.7371H234.464C238.503 46.7371 241.788 52.6062 241.788 59.8238C241.781 67.0413 238.496 72.9104 234.458 72.9104ZM230.049 72.58H234.451C238.305 72.58 241.444 66.8562 241.444 59.8238C241.444 52.7913 238.305 47.0675 234.451 47.0675H230.049C230.558 47.279 231.054 47.5831 231.536 47.9929C232.805 49.0636 233.87 50.7556 234.61 52.8904C235.337 54.9592 235.72 57.3584 235.72 59.8304C235.72 62.2957 235.337 64.6949 234.61 66.7703C233.863 68.9051 232.799 70.5971 231.536 71.6613C231.061 72.0644 230.565 72.3685 230.049 72.58Z" fill="#390075"/>
<g opacity="0.3">
<g opacity="0.3">
<path opacity="0.3" d="M241.483 62.2627C240.855 68.2376 237.947 72.7453 234.457 72.7453H228.396C229.48 72.7453 230.512 72.3091 231.43 71.5291C232.679 70.4782 233.73 68.7928 234.457 66.7042C234.894 65.4485 235.217 64.0472 235.396 62.5469L235.535 62.6394C237.306 63.8424 239.626 63.6903 241.305 62.3618C241.377 62.3156 241.437 62.2759 241.483 62.2627Z" fill="#390075"/>
</g>
</g>
<path d="M228.397 73.7565C223.816 73.7565 220.234 67.6362 220.234 59.8238C220.234 52.0115 223.823 45.8911 228.397 45.8911C229.685 45.8911 230.961 46.3934 232.085 47.3452C233.466 48.5085 234.616 50.3327 235.409 52.6063C236.163 54.7676 236.566 57.2594 236.566 59.8238C236.566 62.3883 236.169 64.88 235.409 67.0413C234.616 69.315 233.459 71.1326 232.078 72.3024C230.961 73.2542 229.685 73.7565 228.397 73.7565ZM228.397 47.9136C225.065 47.9136 222.25 53.3664 222.25 59.8238C222.25 66.2812 225.065 71.734 228.397 71.734C229.216 71.734 230.016 71.4036 230.776 70.7624C231.886 69.8239 232.825 68.3103 233.506 66.3738C234.186 64.424 234.55 62.1636 234.55 59.8238C234.55 57.4841 234.193 55.2236 233.506 53.2739C232.831 51.3373 231.886 49.8237 230.783 48.8852C230.016 48.2375 229.216 47.9136 228.397 47.9136Z" fill="#390075"/>
<path d="M234.457 73.7565H228.396V71.734C229.216 71.734 230.016 71.4036 230.776 70.7625C231.886 69.8239 232.825 68.3104 233.506 66.3738C234.186 64.424 234.55 62.1636 234.55 59.8238C234.55 57.4841 234.193 55.2237 233.506 53.2739C232.831 51.3373 231.886 49.8237 230.782 48.8852C230.016 48.2375 229.216 47.907 228.403 47.907V45.8845H234.464C239.044 45.8845 242.633 52.0049 242.633 59.8172C242.62 67.6362 239.038 73.7565 234.457 73.7565ZM232.686 71.734H234.457C237.788 71.734 240.604 66.2813 240.604 59.8238C240.604 53.3664 237.788 47.9136 234.457 47.9136H232.686C233.796 49.0703 234.735 50.6764 235.409 52.6063C236.163 54.7676 236.566 57.2594 236.566 59.8238C236.566 62.3883 236.169 64.8801 235.409 67.0413C234.735 68.9779 233.796 70.584 232.686 71.734Z" fill="#390075"/>
<g opacity="0.3">
<g opacity="0.3">
<path opacity="0.3" d="M136.856 81.0796C137.464 80.5178 138.092 79.9626 138.726 79.4272C138.092 79.9692 137.464 80.5178 136.856 81.0796Z" fill="#293856"/>
</g>
<g opacity="0.3">
<path opacity="0.3" d="M136.968 81.1987L136.744 80.9541C137.378 80.3659 138.013 79.8107 138.621 79.3018L138.832 79.5529C138.224 80.0685 137.603 80.617 136.968 81.1987Z" fill="#390075"/>
</g>
</g>
<g opacity="0.3">
<g opacity="0.3">
<path opacity="0.3" d="M140.682 77.8545C140.015 78.37 139.367 78.8922 138.726 79.4275C139.361 78.8856 140.015 78.3634 140.682 77.8545Z" fill="#293856"/>
</g>
<g opacity="0.3">
<path opacity="0.3" d="M138.832 79.553L138.621 79.3018C139.282 78.74 139.942 78.2113 140.584 77.7222L140.782 77.9865C140.108 78.5021 139.453 79.0308 138.832 79.553Z" fill="#390075"/>
</g>
</g>
<path d="M143.651 79.9695C143.651 79.9695 109.916 83.5254 98.819 55.3758C91.0463 35.6796 99.4535 23.5645 109.546 20.6233C116.354 18.6405 123.935 20.8348 127.828 27.6954C131.258 33.7431 129.897 38.8984 127.616 41.3373C126.87 42.1305 126.03 42.6394 125.224 42.7914C120.584 43.6837 118.238 40.9275 117.557 35.7854C117.438 34.9063 116.764 31.5157 113.816 31.8131C113.347 31.8594 112.904 31.9585 112.481 32.1039C108.052 33.6241 106.301 40.2798 107.094 47.6295C107.471 51.1854 108.449 54.8933 110.009 58.2641C114.259 67.4644 131.245 71.8201 143.975 72.8577L143.651 79.9695Z" fill="#A5A5A5"/>
<path opacity="0.3" d="M143.65 79.9694C143.65 79.9694 109.916 83.5253 98.8184 55.3757C91.5282 36.8957 98.4813 25.0912 107.702 21.2776C101.753 26.9485 98.521 39.1297 104.198 53.5251C112.513 74.6026 133.782 76.0765 143.809 76.4003L143.65 79.9694Z" fill="#390075"/>
<path d="M125.23 42.7979C120.59 43.6836 118.244 40.9341 117.563 35.7919C117.444 34.9129 116.77 31.5222 113.822 31.8196C113.353 31.8659 112.91 31.9651 112.487 32.1105L113.406 30.3325C113.697 29.7773 113.432 29.0966 112.851 28.8718L109.903 27.7416C109.143 27.4508 108.991 26.4396 109.632 25.9306L112.124 23.9808C112.685 23.538 112.652 22.6722 112.057 22.2756L109.559 20.6233C116.367 18.6404 123.948 20.8348 127.841 27.702C132.375 35.7192 128.502 42.17 125.23 42.7979Z" fill="white"/>
<path d="M139.956 81.126C136.519 81.126 131.099 80.8021 125.137 79.2026C111.965 75.6798 102.54 67.5634 97.88 55.7457C94.5687 47.3584 93.8946 39.5196 95.9236 33.082C97.6752 27.5168 101.39 23.1414 106.38 20.7554C114.893 16.6839 124.285 19.4004 128.706 27.1996C131.145 31.5023 131.588 36.0496 129.909 39.6848C128.898 41.8791 127.173 43.4522 125.415 43.7893C123.194 44.2123 121.33 43.895 119.876 42.8441C118.118 41.5751 117.001 39.2486 116.558 35.924C116.453 35.1441 115.957 32.6193 113.915 32.8242C111.403 33.0753 109.916 35.1309 109.116 36.8097C106.796 41.6676 106.803 50.63 111.396 57.6559C118.33 68.2574 134.833 71.1061 144.054 71.8596C144.609 71.9058 145.025 72.3949 144.979 72.9501C144.933 73.5053 144.444 73.9151 143.888 73.8754C134.298 73.0889 117.107 70.0816 109.704 58.7596C105.322 52.0511 104.285 42.2426 107.292 35.9438C108.739 32.9101 111.02 31.0859 113.71 30.8149C116.77 30.5043 118.231 33.234 118.554 35.6596C118.918 38.4092 119.757 40.2796 121.053 41.2116C122.057 41.932 123.353 42.1303 125.032 41.8064C126.142 41.5949 127.338 40.4317 128.072 38.8388C128.733 37.4045 129.949 33.4984 126.948 28.1976C122.54 20.4315 113.703 19.4929 107.246 22.5796C99.3738 26.3403 92.6916 37.0939 99.7571 55.0055C104.232 66.3473 112.923 73.8226 125.593 77.233C135.131 79.7975 143.459 78.9713 143.545 78.9581C144.106 78.8986 144.596 79.3018 144.655 79.857C144.715 80.4122 144.311 80.9079 143.756 80.9674C143.617 80.9872 142.216 81.126 139.956 81.126Z" fill="#390075"/>
<g opacity="0.3">
<g opacity="0.3">
<g opacity="0.3">
<path opacity="0.3" d="M127.616 41.3372C126.869 42.1304 126.03 42.6393 125.223 42.7913C120.584 43.6836 118.237 40.9274 117.556 35.7853C117.437 34.9062 116.763 31.5156 113.816 31.813C113.346 31.8593 112.903 31.9584 112.48 32.1038C108.052 33.624 106.301 40.2797 107.094 47.6294L105.917 47.213C105.917 47.213 105.084 32.0708 113.452 28.8255C122.117 25.4613 122.52 33.8223 124.034 38.0854C124.946 40.6432 126.512 41.2579 127.616 41.3372Z" fill="#000072"/>
</g>
</g>
<g opacity="0.3">
<g opacity="0.3">
<path opacity="0.3" d="M107.286 47.8739L105.759 47.332L105.752 47.2196C105.746 47.0676 105.005 31.9188 113.393 28.6669C115.871 27.7019 117.828 27.616 119.381 28.4025C121.866 29.6583 122.732 32.8639 123.498 35.6994C123.73 36.5454 123.941 37.3385 124.186 38.0259C125.065 40.478 126.539 41.0927 127.629 41.172L127.973 41.1984L127.735 41.4496C126.982 42.2559 126.103 42.7913 125.257 42.9565C123.274 43.3399 121.635 43.0689 120.372 42.1568C118.806 41.0266 117.808 38.8917 117.398 35.8051C117.305 35.1177 116.704 31.6808 113.835 31.9716C113.393 32.0179 112.956 32.1104 112.54 32.2558C108.475 33.6504 106.406 39.6716 107.259 47.6096L107.286 47.8739ZM106.076 47.1006L106.902 47.3915C106.102 39.4271 108.264 33.3794 112.428 31.9518C112.871 31.7998 113.333 31.7006 113.796 31.6544C116.975 31.3305 117.623 35.0252 117.722 35.7721C118.118 38.7595 119.07 40.8217 120.564 41.899C121.747 42.7516 123.307 43.0028 125.197 42.6393C125.891 42.5071 126.612 42.0973 127.266 41.4694C126.129 41.2843 124.728 40.5242 123.882 38.1448C123.631 37.4442 123.413 36.6445 123.188 35.7919C122.441 33.0291 121.588 29.8963 119.242 28.7066C117.775 27.9663 115.904 28.0588 113.518 28.9842C105.719 32.0047 106.023 45.7259 106.076 47.1006Z" fill="#390075"/>
</g>
</g>
</g>
<path d="M194.18 86.0303C194.702 86.3938 195.165 86.7375 195.568 87.0481C202.568 92.5406 205.588 96.2352 207.3 98.9253C208.628 101.014 209.164 102.501 210.162 103.757C210.955 104.755 212.032 105.607 214.042 106.5C217.379 107.987 223.315 106.374 223.116 101.219C223.03 98.9716 222.33 97.0152 221.438 95.4091C221.312 95.1843 221.18 94.9596 221.048 94.7481C219.322 91.9854 217.155 90.4322 217.155 90.4322L194.18 86.0303Z" fill="#A5A5A5"/>
<path d="M216.699 107.194C215.734 107.194 214.782 107.015 213.969 106.652C212.098 105.819 210.922 104.986 210.03 103.863C209.468 103.155 209.051 102.376 208.569 101.477C208.186 100.756 207.749 99.9432 207.161 99.0179C205.714 96.7443 202.931 93.0364 195.469 87.1804C195.013 86.8235 194.557 86.4864 194.094 86.1626L193.447 85.7197L217.247 90.3067C217.267 90.3199 219.461 91.9128 221.186 94.6689C221.319 94.887 221.451 95.1051 221.583 95.3365C222.634 97.2268 223.209 99.203 223.288 101.219C223.387 103.764 222.052 105.211 220.922 105.978C219.726 106.777 218.186 107.194 216.699 107.194ZM194.894 86.3344C195.152 86.5261 195.41 86.7178 195.667 86.9226C203.169 92.8117 205.978 96.546 207.439 98.8395C208.034 99.778 208.47 100.598 208.86 101.318C209.336 102.204 209.745 102.97 210.287 103.658C211.147 104.735 212.283 105.541 214.101 106.354C216.077 107.233 218.866 106.962 220.724 105.707C221.788 104.986 223.037 103.625 222.944 101.232C222.872 99.2691 222.31 97.3391 221.286 95.4951C221.16 95.2704 221.034 95.0523 220.902 94.8408C219.323 92.3093 217.34 90.7892 217.082 90.5975L194.894 86.3344Z" fill="#390075"/>
<g opacity="0.3">
<g opacity="0.3">
<path opacity="0.3" d="M206.533 92.9504C205.363 93.1817 204.154 93.3734 202.898 93.5056C201.107 91.6748 198.747 89.5465 195.561 87.0481C195.165 86.7375 194.702 86.3872 194.173 86.0237L201.318 87.3984C203.711 89.5928 205.35 91.4104 206.533 92.9504Z" fill="#6B184E"/>
</g>
<g opacity="0.3">
<path opacity="0.3" d="M202.839 93.6841L202.786 93.6246C200.829 91.622 198.364 89.4541 195.462 87.1804C195.013 86.8301 194.55 86.4864 194.088 86.1626L193.447 85.7197L201.411 87.2465L201.444 87.2796C203.599 89.2558 205.31 91.08 206.672 92.8513L206.837 93.0628L206.58 93.1157C205.377 93.3536 204.147 93.5453 202.931 93.6775L202.839 93.6841ZM194.887 86.3344C195.152 86.5261 195.41 86.7244 195.661 86.9226C198.549 89.1831 201.001 91.3444 202.958 93.3404C204.048 93.2214 205.152 93.0496 206.236 92.8447C204.921 91.1659 203.281 89.4342 201.246 87.5572L194.887 86.3344Z" fill="#390075"/>
</g>
</g>
<path d="M207.789 99.6259C208.88 101.344 209.441 102.653 210.155 103.757C210.948 104.755 212.026 105.607 214.035 106.5C217.373 107.987 223.308 106.374 223.11 101.219C223.024 98.9716 222.323 97.0152 221.431 95.4091C219.62 94.7614 215.872 94.1665 210.935 97.2465C210.056 97.7951 209.137 98.4627 208.186 99.2624C208.04 99.388 207.908 99.5069 207.789 99.6259Z" fill="white"/>
<g opacity="0.3">
<g opacity="0.3">
<g opacity="0.3">
<path opacity="0.3" d="M214.035 106.506C212.026 105.614 210.948 104.761 210.155 103.763C209.164 102.507 208.622 101.027 207.293 98.9317C206.857 98.2443 206.328 97.4908 205.674 96.6514C204.934 95.7129 204.035 94.6752 202.898 93.5119C204.147 93.3731 205.363 93.1881 206.533 92.9567C212.429 91.7935 217.293 89.5661 221.16 87.1206C221.603 87.6626 222.032 88.2112 222.449 88.7663C222.621 88.9911 222.786 89.2158 222.951 89.4405C222.554 89.7313 222.145 90.0155 221.735 90.2865C219.084 92.0182 215.938 93.6639 212.29 94.933C210.267 95.6336 209.474 98.1187 210.796 99.8041C210.803 99.8173 210.809 99.8239 210.823 99.8372C211.616 100.835 212.693 101.688 214.702 102.58C217.267 103.724 221.358 103.036 223.03 100.32C223.063 100.617 223.09 100.921 223.103 101.232C223.308 106.374 217.373 107.993 214.035 106.506Z" fill="#000072"/>
</g>
</g>
<g opacity="0.3">
<g opacity="0.3">
<path opacity="0.3" d="M216.692 107.194C215.727 107.194 214.775 107.015 213.962 106.652C212.091 105.819 210.915 104.986 210.023 103.862C209.461 103.155 209.044 102.375 208.555 101.47C208.172 100.756 207.736 99.943 207.148 99.0177C206.652 98.2378 206.123 97.4975 205.541 96.7507C204.735 95.7262 203.836 94.7083 202.779 93.6244L202.541 93.3799L202.878 93.3402C204.087 93.208 205.304 93.0229 206.493 92.785C211.682 91.7605 216.586 89.8041 221.067 86.9753L221.193 86.896L221.285 87.0084C221.708 87.5239 222.144 88.0857 222.581 88.6607C222.719 88.8392 222.852 89.0242 222.99 89.2027L223.189 89.4671L223.056 89.5662C222.633 89.8702 222.224 90.1544 221.827 90.4122C218.859 92.3554 215.667 93.9218 212.349 95.0719C211.424 95.3891 210.71 96.1426 210.439 97.0745C210.168 97.9866 210.353 98.9384 210.935 99.6787L210.961 99.7117C211.814 100.789 212.957 101.595 214.781 102.408C217.286 103.525 221.292 102.825 222.904 100.214L223.156 99.8108L223.208 100.28C223.242 100.571 223.268 100.875 223.281 101.205C223.38 103.75 222.045 105.198 220.915 105.964C219.725 106.777 218.185 107.194 216.692 107.194ZM214.101 106.354C216.077 107.233 218.866 106.962 220.723 105.706C221.787 104.986 223.037 103.624 222.944 101.232C222.938 101.08 222.931 100.928 222.918 100.782C221.087 103.221 217.148 103.843 214.643 102.726C212.772 101.893 211.589 101.053 210.697 99.9298L210.67 99.8968C210.023 99.0706 209.818 98.0065 210.122 96.9886C210.426 95.9509 211.219 95.1247 212.243 94.7678C215.535 93.6244 218.701 92.0712 221.649 90.1412C221.992 89.9165 222.356 89.6654 222.726 89.401C222.594 89.2225 222.462 89.0441 222.323 88.8656C221.92 88.3302 221.516 87.8147 221.127 87.3322C216.645 90.1412 211.748 92.091 206.566 93.1089C205.475 93.327 204.358 93.4988 203.255 93.631C204.22 94.629 205.052 95.5874 205.806 96.5392C206.401 97.2926 206.929 98.0461 207.432 98.8326C208.027 99.7712 208.463 100.584 208.853 101.305C209.329 102.197 209.738 102.964 210.287 103.651C211.14 104.741 212.283 105.541 214.101 106.354Z" fill="#390075"/>
</g>
</g>
</g>
<path d="M216.731 108.086C215.621 108.086 214.53 107.868 213.599 107.418C210.241 105.806 209.369 104.233 208.166 102.058C206.665 99.3483 204.392 95.257 194.947 87.8478C190.023 83.9813 181.259 79.8107 167.471 81.8729L167.174 79.8768C181.668 77.7089 190.955 82.1505 196.196 86.2616C205.965 93.9219 208.357 98.2313 209.937 101.08C211.08 103.135 211.708 104.266 214.484 105.601C216.13 106.387 218.516 106.176 220.162 105.092C221.094 104.477 222.191 103.321 222.112 101.265C221.88 95.1513 215.581 90.5577 215.515 90.5114L216.692 88.8723C216.983 89.0838 223.856 94.0805 224.127 101.192C224.213 103.532 223.202 105.515 221.272 106.784C219.944 107.636 218.318 108.086 216.731 108.086Z" fill="#390075"/>
<path opacity="0.3" d="M131.602 86.7705C139.573 85.5147 156.195 90.0091 162.263 93.9285C162.983 94.3912 163.611 94.8274 164.14 95.2107C164.226 95.2768 164.318 95.3363 164.398 95.4024C167.312 97.5637 169.533 99.454 171.245 101.113C173.082 102.891 174.345 104.404 175.277 105.726C178.489 110.293 177.656 112.455 182.607 114.662C185.944 116.149 192.177 114.517 191.681 109.381C191.476 107.293 190.882 105.601 190.174 104.285C190.029 104.014 189.884 103.763 189.732 103.519C188.41 101.43 186.936 100.492 186.936 100.492L185.383 85.7063C183.056 85.9443 180.71 86.0897 178.363 86.0897C165.376 86.0897 151.483 84.8075 141.899 82.7057C139.546 82.1901 137.319 82.0117 135.276 82.1372C134.001 82.2166 130.822 86.8894 131.602 86.7705Z" fill="#000072"/>
<path d="M135.124 82.0382C144.9 81.483 158.839 88.3436 165.402 92.5803C166.123 93.0429 166.751 93.4791 167.279 93.8625C167.365 93.9286 167.458 93.9881 167.537 94.0542C170.452 96.2154 172.673 98.1057 174.384 99.7647C176.222 101.543 177.484 103.056 178.416 104.378C181.628 108.945 180.796 111.107 185.746 113.314C189.084 114.801 195.317 113.169 194.821 108.033C194.616 105.945 194.021 104.253 193.314 102.937C193.168 102.666 193.023 102.415 192.871 102.171C191.549 100.082 191.708 98.0066 191.708 98.0066L187.861 78.0461L187.835 77.7883L185.33 53.9415L185.026 51.0267C171.146 38.9909 153.737 40.7556 143.809 46.6909C141.873 47.8476 140.22 49.1628 138.938 50.5707C125.957 64.7611 135.124 82.0382 135.124 82.0382Z" fill="#A5A5A5"/>
<path opacity="0.5" d="M132.335 63.9614C133.367 60.4584 135.237 56.8628 138.37 53.4391C139.685 52.0049 141.377 50.6566 143.353 49.4735C153.459 43.4324 171.146 41.6148 185.31 53.7167L185.026 51.0333C171.146 38.9975 153.737 40.7622 143.809 46.6975C141.873 47.8542 140.221 49.1694 138.938 50.5772C134.94 54.9461 133.043 59.6057 132.335 63.9614Z" fill="white"/>
<g opacity="0.3">
<g opacity="0.3">
<path opacity="0.3" d="M143.948 46.5719C151.231 43.7959 156.36 41.6479 152.269 42.5269C148.958 43.2407 146.169 44.6419 143.948 46.5719Z" fill="#6B184E"/>
</g>
<g opacity="0.3">
<path opacity="0.3" d="M143.141 47.061L143.842 46.453C146.142 44.4503 148.971 43.0756 152.236 42.375C153.69 42.0643 153.822 42.1568 153.882 42.3419C153.954 42.5931 154.047 42.9103 144.014 46.7372L143.141 47.061ZM153.353 42.5071C153.161 42.527 152.844 42.5798 152.302 42.6922C149.453 43.3069 146.948 44.4371 144.847 46.0564C150.808 43.7695 152.771 42.864 153.353 42.5071Z" fill="#390075"/>
</g>
</g>
<path d="M178.417 104.385C181.629 108.952 180.796 111.113 185.746 113.321C189.084 114.808 195.317 113.175 194.821 108.04C194.577 105.522 193.757 103.585 192.871 102.177C190.122 101.146 184.92 100.267 178.549 104.292C178.509 104.325 178.463 104.358 178.417 104.385Z" fill="white"/>
<path d="M188.456 114.867C187.359 114.867 186.275 114.662 185.336 114.246C181.688 112.627 180.822 110.882 179.725 108.674C178.284 105.766 176.308 101.787 166.671 94.6886C161.654 90.9873 150.868 84.5563 135.025 83.0494L134.483 82.9965L134.225 82.514C134.126 82.329 131.833 77.9535 131.152 71.7406C130.517 65.9772 131.225 57.5039 138.184 49.8964C142.566 45.1112 150.399 41.7734 158.634 41.1786C168.489 40.4714 178.099 43.6968 185.68 50.2666L184.358 51.7933C167.59 37.2526 146.671 43.6109 139.678 51.258C128.495 63.4788 134.483 78.2708 135.785 81.093C151.813 82.7454 162.752 89.2821 167.874 93.0561C177.9 100.445 180.088 104.854 181.536 107.769C182.593 109.897 183.175 111.067 186.156 112.395C187.934 113.188 190.597 112.884 192.23 111.708C193.426 110.842 193.961 109.639 193.816 108.132C193.234 102.164 188.37 93.5981 188.317 93.5121L190.068 92.5075C190.28 92.871 195.204 101.536 195.819 107.941C196.03 110.148 195.178 112.071 193.4 113.347C192.038 114.345 190.22 114.867 188.456 114.867Z" fill="#390075"/>
<path d="M219.203 72.8113C219.051 72.8245 218.886 72.8311 218.727 72.8377C218.727 72.8377 218.734 72.8443 218.741 72.8509C218.747 72.8509 218.747 72.8509 218.747 72.8509C218.774 72.8708 218.833 72.9038 218.919 72.9633C219.018 72.917 219.111 72.8642 219.203 72.8113Z" fill="#982E20"/>
<path d="M218.906 73.1551L218.826 73.1022C218.78 73.0692 218.747 73.0493 218.714 73.0295C218.707 73.0229 218.701 73.0229 218.694 73.0163L218.608 72.9502L218.357 72.6924L218.754 72.6726C218.899 72.666 219.051 72.6594 219.19 72.6462L220.003 72.5801L219.17 73.0163C219.11 73.0493 219.058 73.0758 218.998 73.1088L218.906 73.1551Z" fill="#390075"/>
<path d="M167.319 80.875L194.18 86.0303C189.824 83.023 181.152 78.8062 167.319 80.875Z" fill="#A5A5A5"/>
<path d="M194.913 86.3409L166.334 80.8551L167.292 80.7096C180.518 78.7268 189.262 82.4347 194.272 85.8914L194.913 86.3409ZM168.323 80.9013L193.406 85.7196C188.489 82.5206 180.333 79.3349 168.323 80.9013Z" fill="#390075"/>
<path d="M180.307 76.1029C180.519 75.9377 180.724 75.7724 180.928 75.6006C180.73 75.7394 180.525 75.9046 180.307 76.1029Z" fill="white"/>
<path d="M180.406 76.2284L180.194 75.9706C180.426 75.7657 180.631 75.6005 180.829 75.4617L181.034 75.7194C180.829 75.8979 180.624 76.0697 180.406 76.2284Z" fill="#390075"/>
<g opacity="0.3">
<g opacity="0.3">
<path opacity="0.3" d="M174.246 69.3016C174.18 69.5725 174.094 69.8435 173.982 70.1013C174.061 69.7642 174.134 69.4337 174.193 69.1033C174.193 69.1033 174.206 69.176 174.246 69.3016Z" fill="#6B184E"/>
</g>
<g opacity="0.3">
<path opacity="0.3" d="M174.133 70.1675L173.823 70.0617C173.908 69.7048 173.975 69.3809 174.034 69.0703L174.186 68.2573L174.358 69.0703C174.358 69.0703 174.371 69.143 174.404 69.262L174.417 69.3016L174.404 69.3413C174.331 69.6255 174.239 69.9031 174.133 70.1675Z" fill="#390075"/>
</g>
</g>
<g opacity="0.3">
<g opacity="0.3">
<path opacity="0.3" d="M174.272 69.4141C174.259 69.3744 174.252 69.3348 174.239 69.3017C174.246 69.2753 174.252 69.2554 174.259 69.229C174.266 69.2885 174.272 69.348 174.272 69.4141Z" fill="#6B184E"/>
</g>
<g opacity="0.3">
<path opacity="0.3" d="M174.524 70.8285L174.074 69.3017L174.087 69.2555C174.094 69.2224 174.101 69.2092 174.101 69.1894L174.339 68.0327L174.431 69.2489C174.438 69.3017 174.438 69.348 174.444 69.4009L174.524 70.8285Z" fill="#390075"/>
</g>
</g>
<path d="M220.241 100.102C220.545 100.406 220.803 100.736 221.041 101.08C221.279 101.424 221.497 101.787 221.689 102.164C221.88 102.541 222.059 102.937 222.171 103.36C222.277 103.783 222.356 104.226 222.31 104.695C222.27 105.059 221.947 105.33 221.583 105.29C221.299 105.264 221.074 105.059 221.008 104.794L220.995 104.748C220.909 104.404 220.849 104.054 220.777 103.691L220.572 102.567C220.42 101.8 220.235 101.02 220.083 100.201C220.069 100.148 220.109 100.095 220.162 100.088C220.188 100.069 220.221 100.082 220.241 100.102Z" fill="#390075"/>
<path d="M216.302 101.966C216.599 102.29 216.817 102.66 217.009 103.05C217.194 103.44 217.346 103.849 217.452 104.279C217.551 104.702 217.637 105.138 217.644 105.574C217.65 106.011 217.61 106.453 217.485 106.876C217.379 107.227 217.009 107.432 216.652 107.326C216.374 107.247 216.189 106.995 216.176 106.724V106.685C216.156 106.301 216.196 105.931 216.209 105.555C216.236 105.178 216.262 104.801 216.275 104.418C216.295 103.651 216.256 102.865 216.143 102.052V102.045C216.137 101.992 216.17 101.939 216.229 101.933C216.249 101.926 216.275 101.939 216.302 101.966Z" fill="#390075"/>
<g opacity="0.35">
<g opacity="0.35">
<path opacity="0.35" d="M226.705 31.1587C215.7 17.1797 197.723 17.8406 197.723 17.8406C197.723 17.8406 179.738 17.1797 168.734 31.1587C160.069 42.1634 159.289 55.1113 160.28 64.3711C161.258 73.545 166.143 81.8134 173.697 86.7573C179.388 90.4784 187.359 93.8029 197.709 93.8029H197.723C208.073 93.8029 216.051 90.4718 221.741 86.7507C229.296 81.8068 234.187 73.5318 235.158 64.3645C236.15 55.1047 235.363 42.1568 226.705 31.1587Z" fill="white"/>
</g>
<g opacity="0.35">
<path opacity="0.35" d="M197.716 93.9682C188.879 93.9682 180.769 91.5888 173.598 86.8895C166.024 81.9324 161.106 73.7301 160.108 64.3843C159.143 55.3294 159.831 42.1964 168.595 31.0529C179.527 17.1731 197.531 17.6622 197.716 17.6754C197.881 17.6688 215.898 17.1731 226.824 31.0529C235.595 42.1898 236.282 55.3228 235.317 64.3777C234.319 73.7235 229.402 81.9258 221.821 86.8829C214.649 91.5822 206.533 93.9682 197.716 93.9682ZM197.425 17.9993C195.026 17.9993 178.919 18.4884 168.866 31.2578C160.161 42.3154 159.487 55.3558 160.445 64.3513C161.43 73.5979 166.295 81.7077 173.79 86.6185C180.908 91.2781 188.958 93.6377 197.709 93.6377C206.473 93.6377 214.53 91.2715 221.655 86.6119C229.15 81.7077 234.015 73.5913 235 64.3447C235.958 55.3492 235.277 42.3088 226.579 31.2578C215.753 17.5102 197.908 17.9993 197.729 18.0059C197.709 18.0059 197.61 17.9993 197.425 17.9993Z" fill="#390075"/>
</g>
</g>
<path d="M226.704 31.1587C215.7 17.1797 197.722 17.8406 197.722 17.8406C197.722 17.8406 179.738 17.1797 168.733 31.1587C160.068 42.1634 159.288 55.1113 160.28 64.3711C161.258 73.545 166.142 81.8134 173.697 86.7573C179.387 90.4784 187.358 93.8029 197.709 93.8029H197.722C208.072 93.8029 216.05 90.4718 221.741 86.7507C229.295 81.8068 234.186 73.5318 235.158 64.3645C236.149 55.1047 235.363 42.1568 226.704 31.1587Z" fill="#390075"/>
<path d="M191.14 39.8897C188.503 38.0258 176.401 29.7111 173.949 31.6675C169.666 35.0912 174.187 49.9162 175.105 52.8442" fill="#A5A5A5"/>
<path d="M207.042 39.4601C209.514 37.3781 220.862 28.0588 223.466 29.7971C228.027 32.8441 225.39 46.0497 224.729 49.0438" fill="#A5A5A5"/>
<path d="M224.887 49.0835L224.563 49.0108C225.152 46.3538 227.875 32.9433 223.374 29.936C221.404 28.6207 213.407 34.3114 207.148 39.5857L206.936 39.3346C210.161 36.6181 220.902 27.887 223.559 29.665C228.119 32.7119 225.727 45.3029 224.887 49.0835Z" fill="#390075"/>
<g opacity="0.5">
<g opacity="0.5">
<path opacity="0.5" d="M207.042 39.4602L208.925 40.478C212.587 37.4641 222.019 30.0748 224.358 31.6412C224.768 31.9122 225.119 32.2691 225.416 32.6921C225.006 31.4297 224.378 30.4118 223.466 29.7972C220.862 28.0655 209.514 37.3782 207.042 39.4602Z" fill="white"/>
</g>
</g>
<path d="M224.729 50.0617C224.656 50.0617 224.583 50.0551 224.511 50.0353C223.969 49.9163 223.625 49.3743 223.744 48.8323C225.317 41.7536 226.044 32.7384 222.911 30.6432C222.898 30.6366 221.748 29.9558 215.779 34.0338C212.25 36.4462 208.701 39.3941 207.696 40.2335C207.267 40.5904 206.632 40.5375 206.275 40.1145C205.918 39.6849 205.971 39.0504 206.394 38.6935C207.412 37.8342 211.027 34.8335 214.636 32.3682C220.981 28.0324 222.99 28.2704 224.028 28.9644C228.899 32.2162 226.83 44.252 225.713 49.2686C225.608 49.7378 225.191 50.0617 224.729 50.0617Z" fill="#390075"/>
<path d="M222.528 33.776C222.528 33.776 223.11 33.4852 223.249 34.9459C223.48 37.4443 223.15 43.8158 220.539 46.4133C220.539 46.4133 215.536 40.5573 214.3 39.9559C213.064 39.3544 215.443 38.2704 216.045 37.279C216.646 36.281 222.039 33.6042 222.528 33.776Z" fill="#FC7E81"/>
<g opacity="0.3">
<g opacity="0.3">
<path opacity="0.3" d="M214.299 39.9492C215.02 40.2995 217.016 42.4344 218.562 44.1528C219.878 41.1257 220.036 36.8296 219.858 34.8864C219.858 34.8666 219.851 34.8401 219.851 34.8203C218.219 35.6333 216.388 36.7106 216.051 37.2658C215.443 38.2638 213.057 39.3478 214.299 39.9492Z" fill="#390075"/>
</g>
</g>
<path d="M222.541 33.8619C221.722 34.2188 220.902 34.6418 220.109 35.0847C219.316 35.5341 218.549 36.01 217.809 36.5321C216.335 37.5698 214.973 38.7529 213.922 40.1211L213.691 38.786C214.121 39.0702 214.464 39.3412 214.821 39.632C215.178 39.9228 215.515 40.2202 215.852 40.5242C216.52 41.1389 217.148 41.78 217.749 42.4476C218.344 43.1218 218.919 43.8025 219.454 44.523C219.996 45.2302 220.492 45.9704 220.981 46.7173C221.1 46.8957 221.047 47.1337 220.869 47.246C220.704 47.3518 220.479 47.3188 220.36 47.1667L220.353 47.1601C219.811 46.4793 219.263 45.8118 218.675 45.1773C218.1 44.5362 217.478 43.9281 216.85 43.3399C216.216 42.7582 215.562 42.203 214.881 41.6875C214.544 41.4297 214.193 41.1786 213.85 40.9472C213.506 40.7159 213.129 40.478 212.812 40.3061L211.9 39.8236L212.581 38.971C213.922 37.5169 215.502 36.3933 217.135 35.4482C217.954 34.9723 218.794 34.5493 219.653 34.1594C220.512 33.7694 221.371 33.4191 222.277 33.1217C222.482 33.0556 222.7 33.1613 222.772 33.3662C222.839 33.5579 222.739 33.7694 222.561 33.8487L222.541 33.8619Z" fill="#390075"/>
<path d="M233.268 72.395C233.123 73.8689 229.805 72.1703 229.805 72.1703C229.805 72.1703 229.62 72.6329 230.294 73.9416C230.797 74.9132 231.239 75.6204 231.041 76.1492C230.836 76.711 229.878 76.8365 228.767 76.7308C227.987 76.6515 227.327 76.7638 226.474 77.709C226.309 77.8941 226.137 78.1056 225.952 78.3567C225.952 78.3567 225.952 78.3567 225.945 78.3633C223.407 81.3905 219.924 83.6377 215.8 85.1843C215.8 85.1843 192.858 91.6946 180.029 82.7917C178.047 81.364 176.321 79.6257 174.953 77.5305C174.623 77.4446 174.299 77.4512 173.955 77.4909C172.845 77.6363 171.887 77.5305 171.662 76.9753C171.45 76.4532 171.807 75.6667 172.237 74.6554C172.587 73.8359 172.719 73.3269 172.766 73.1022C172.779 73.0427 172.726 72.9965 172.686 73.0229C172.118 73.3203 169.507 74.5959 169.342 73.2873C169.309 73.0295 169.428 72.5801 169.62 72.0117C169.957 70.9806 170.512 69.5463 170.75 68.0923C171.351 64.4174 171.84 61.8265 172.144 60.2601C172.151 60.2204 172.158 60.1741 172.171 60.1345C172.177 60.0948 172.184 60.0552 172.197 60.0089C172.204 59.9692 172.21 59.9296 172.224 59.8899C172.316 59.4339 172.422 58.9844 172.541 58.535C173.083 56.4596 173.869 54.3975 174.874 52.0578L183.175 42.9301L188.714 36.8428C191.933 35.2301 195.588 34.2189 199.673 33.9809C200.499 33.9347 201.305 33.9148 202.098 33.9347C202.118 33.9347 202.138 33.9347 202.158 33.9347C205.132 34.0008 207.769 34.8005 210.32 35.6729C220.228 39.1032 225.608 48.2573 225.608 48.2573C226.904 50.4781 227.935 52.494 228.715 54.5495C229.098 55.5608 229.422 56.5786 229.68 57.6427C229.68 57.6427 229.686 57.6626 229.693 57.7022C229.805 58.145 230.552 61.2317 231.715 67.233C232.151 69.4802 233.341 71.6614 233.268 72.395Z" fill="#A5A5A5"/>
<path d="M197.584 75.3758C197.835 79.2489 201.993 80.2337 207.016 79.9032C212.039 79.5728 216.031 78.0526 215.773 74.1795C215.522 70.3063 211.424 66.8628 206.401 67.1867C201.378 67.5172 197.333 71.496 197.584 75.3758Z" fill="white"/>
<path d="M188.271 70.7559C188.073 70.0685 188.027 69.3944 188.06 68.6872C188.106 67.9866 188.258 67.2661 188.575 66.5788C188.886 65.898 189.375 65.2238 190.043 64.7612C190.122 64.7017 190.201 64.6356 190.287 64.5827L190.552 64.4373C190.73 64.3514 190.902 64.2324 191.094 64.1795C191.279 64.1134 191.47 64.0539 191.655 63.9945C191.847 63.9284 192.025 63.9151 192.217 63.8755C192.964 63.7565 193.777 63.7697 194.544 64.0143C195.31 64.2522 196.004 64.7149 196.513 65.2899C197.531 66.4532 197.921 67.9271 197.815 69.2886C197.802 69.4803 197.637 69.6191 197.445 69.6059C197.3 69.5927 197.187 69.5001 197.148 69.3679V69.3613C196.771 68.1915 196.17 67.1339 195.35 66.4862C194.537 65.8319 193.579 65.6534 192.554 65.8583C192.032 65.9442 191.589 66.1293 191.193 66.3871C190.79 66.6382 190.446 66.9951 190.162 67.438C189.573 68.317 189.216 69.5001 188.945 70.7097L188.939 70.7361C188.899 70.9212 188.714 71.0401 188.529 71.0005C188.403 70.9674 188.311 70.8749 188.271 70.7559Z" fill="#390075"/>
<path d="M214.147 67.6758C213.949 67.0281 213.903 66.3804 213.929 65.7062C213.969 65.0387 214.114 64.3513 214.412 63.6903C214.709 63.036 215.172 62.3949 215.813 61.9454C215.892 61.886 215.965 61.8199 216.044 61.7736L216.295 61.6348C216.467 61.5489 216.632 61.4365 216.811 61.3903C216.989 61.3242 217.168 61.2713 217.353 61.2118C217.531 61.1523 217.71 61.1391 217.888 61.0994C218.602 60.9871 219.375 61.0003 220.116 61.2316C220.856 61.463 221.517 61.9058 221.999 62.461C222.488 63.0096 222.819 63.6507 223.017 64.305C223.209 64.9593 223.288 65.6269 223.222 66.2812C223.202 66.4729 223.037 66.6051 222.845 66.5919C222.706 66.5787 222.594 66.4861 222.554 66.3605V66.3539C222.184 65.2436 221.603 64.2654 220.836 63.6573C220.076 63.0492 219.19 62.8906 218.225 63.0823C217.736 63.1616 217.326 63.34 216.956 63.5714C216.58 63.8027 216.262 64.1332 215.991 64.543C215.429 65.3625 215.086 66.4795 214.815 67.6163L214.808 67.6494C214.762 67.8345 214.577 67.9468 214.392 67.9072C214.273 67.8807 214.18 67.7882 214.147 67.6758Z" fill="#390075"/>
<g opacity="0.3">
<g opacity="0.3">
<path opacity="0.3" d="M211.364 75.2834C209.838 76.222 208.298 75.5346 207.597 74.6093C207.597 74.6093 206.116 76.8234 203.764 75.6602C202.29 74.9331 202.878 72.8842 202.878 72.8842L211.801 72.7322C211.801 72.7388 212.547 74.5564 211.364 75.2834Z" fill="#390075"/>
</g>
</g>
<path d="M211.457 72.0977C211.457 72.0977 212.144 73.7765 211.054 74.4506C209.646 75.3165 208.238 74.1796 207.591 73.327C207.591 73.327 206.097 75.7329 204.041 74.8009C202.666 74.173 203.222 72.2431 203.222 72.2431" fill="white"/>
<path d="M204.993 75.1842C204.669 75.1842 204.332 75.1181 203.975 74.9529C202.481 74.2721 203.056 72.21 203.063 72.1901L203.393 72.2827C203.374 72.3554 202.891 74.0804 204.114 74.6356C206.004 75.4949 207.392 73.3203 207.445 73.2278L207.577 73.0163L207.729 73.2146C207.894 73.4261 209.362 75.2834 210.968 74.2986C211.92 73.7103 211.305 72.1769 211.298 72.1571L211.616 72.0249C211.649 72.0976 212.343 73.8491 211.146 74.5828C209.738 75.4486 208.324 74.444 207.604 73.5979C207.26 74.0672 206.288 75.1842 204.993 75.1842Z" fill="#390075"/>
<path d="M204.986 75.6666C204.597 75.6666 204.193 75.5873 203.77 75.3956C202.277 74.7149 202.349 72.9171 202.594 72.0645C202.693 71.7208 203.057 71.5159 203.407 71.6216C203.751 71.7208 203.955 72.0843 203.85 72.4346C203.85 72.4478 203.466 73.8292 204.306 74.2125C205.806 74.8933 206.983 73.0691 207.029 72.9898L207.531 72.1901L208.106 72.9435C208.238 73.122 209.461 74.6686 210.704 73.9085C211.292 73.545 210.849 72.3751 210.842 72.3619C210.704 72.0248 210.869 71.6481 211.199 71.5093C211.536 71.3705 211.913 71.5357 212.052 71.8662C212.382 72.6792 212.62 74.2654 211.384 75.0189C210.069 75.8319 208.642 75.3229 207.617 74.3579C207.022 75.0057 206.09 75.6666 204.986 75.6666Z" fill="#390075"/>
<g opacity="0.3">
<g opacity="0.3">
<path opacity="0.3" d="M204.041 74.7942C206.097 75.7327 207.59 73.3203 207.59 73.3203C208.238 74.1729 209.646 75.3097 211.054 74.4439C211.768 74.0077 211.424 72.7585 211.305 72.2099C211.226 72.5007 211.093 73.0559 210.915 73.3137C210.234 74.3051 208.549 72.5338 207.908 71.6812C207.908 71.6812 205.898 74.9594 204.035 73.6838C203.519 73.3269 203.506 72.5866 203.407 72.1372C203.321 72.7122 203.003 74.3249 204.041 74.7942Z" fill="#390075"/>
</g>
</g>
<path d="M208.205 70.3594C208.284 70.6105 208.35 70.8419 208.41 71.0864C208.469 71.331 208.516 71.5755 208.555 71.8333C208.588 72.0911 208.615 72.3554 208.608 72.633C208.602 72.9172 208.575 73.2147 208.469 73.5451L208.436 73.6443C208.304 74.0673 207.848 74.2986 207.425 74.1664C207.002 74.0342 206.771 73.5782 206.903 73.1552C206.929 73.0626 206.976 72.9833 207.028 72.9106C207.108 72.8049 207.18 72.6396 207.24 72.4546C207.299 72.2695 207.339 72.058 207.366 71.8465C207.399 71.635 207.412 71.4103 207.425 71.1856C207.432 70.9608 207.432 70.7295 207.425 70.5114V70.4916C207.418 70.2735 207.584 70.0884 207.808 70.0818C207.993 70.0818 208.152 70.1941 208.205 70.3594Z" fill="#390075"/>
<path d="M203.797 69.9098C203.982 70.9673 206.077 71.5754 207.597 71.5688C208.747 71.5622 210.578 70.7889 210.558 69.6388C210.545 68.7333 209.514 68.0856 206.784 68.3368C204.55 68.5416 203.671 69.2026 203.797 69.9098Z" fill="#390075"/>
<g opacity="0.7">
<g opacity="0.7">
<path opacity="0.7" d="M206.533 69.0903C206.519 69.2886 207.055 69.4274 207.445 69.3613C207.67 69.3217 208.469 69.1762 208.476 68.9647C208.489 68.7532 208.231 68.6012 207.478 68.6607C206.797 68.7136 206.539 68.892 206.533 69.0903Z" fill="white"/>
</g>
</g>
<g opacity="0.5">
<g opacity="0.5">
<path opacity="0.5" d="M233.268 72.3951C233.242 72.6793 233.09 72.8445 232.872 72.9304C232.508 71.939 231.999 70.6568 231.748 69.3547C230.585 63.3534 229.838 60.2734 229.725 59.8239C229.719 59.7843 229.712 59.7644 229.712 59.7644C229.454 58.7003 229.131 57.6824 228.747 56.6712C227.967 54.6091 227.412 52.3222 226.117 50.1014C226.117 50.1014 220.254 41.2249 210.347 37.7946C207.795 36.9156 205.158 36.1159 202.184 36.0564C202.164 36.0564 202.144 36.0498 202.124 36.0564C201.331 36.0365 200.525 36.0498 199.699 36.1026C195.614 36.3406 192.21 37.061 188.906 39.0372L187.815 39.751C183.909 37.061 175.409 31.8197 173.208 33.5844C172.825 33.8885 172.508 34.2718 172.243 34.7146C172.547 33.4192 173.083 32.3551 173.942 31.6677C176.037 29.9955 184.081 34.8799 188.013 37.4906L187.894 37.2791C191.503 35.1905 195.588 34.2256 199.666 33.9876C200.492 33.9413 201.298 33.9215 202.091 33.9413C202.111 33.9347 202.131 33.9413 202.151 33.9413C205.125 34.0074 207.762 34.8072 210.314 35.6796C220.221 39.1099 225.601 48.264 225.601 48.264C226.897 50.4848 227.928 52.5006 228.708 54.5562C229.091 55.5674 229.415 56.5853 229.673 57.6494C229.673 57.6494 229.679 57.6692 229.686 57.7089C229.798 58.1517 230.545 61.2383 231.708 67.2397C232.151 69.4803 233.341 71.6614 233.268 72.3951Z" fill="white"/>
</g>
</g>
<path d="M183.955 40.9935C183.268 41.4033 181.457 43.6968 180.069 45.5474C179.071 46.8693 178.291 47.9665 178.291 47.9665C175.469 45.6003 174.59 39.2817 174.61 36.7701C174.623 35.3094 175.224 35.5473 175.224 35.5473C175.436 35.4548 176.645 35.8315 177.987 36.3669C179.686 37.0411 181.602 37.9532 181.986 38.4819C182.667 39.4072 185.132 40.2863 183.955 40.9935Z" fill="#FC7E81"/>
<g opacity="0.3">
<g opacity="0.3">
<path opacity="0.3" d="M183.955 40.9936C183.268 41.4034 181.457 43.6968 180.069 45.5475C178.503 42.6393 177.974 38.3762 177.994 36.4264C177.994 36.4066 177.994 36.3802 177.994 36.3604C179.692 37.0345 181.609 37.9466 181.992 38.4754C182.667 39.4073 185.132 40.2864 183.955 40.9936Z" fill="#390075"/>
</g>
</g>
<path d="M175.422 34.8799C176.348 35.1047 177.24 35.3823 178.126 35.6929C179.011 36.0036 179.884 36.3605 180.743 36.7636C182.455 37.57 184.12 38.5548 185.581 39.8833L186.328 40.6698L185.462 41.2316C185.158 41.4299 184.801 41.7009 184.477 41.9587C184.147 42.223 183.823 42.5006 183.512 42.7848C182.878 43.3533 182.276 43.9613 181.695 44.5958C181.12 45.2369 180.558 45.8913 180.036 46.5787C179.507 47.2594 179.011 47.9733 178.535 48.7003L178.529 48.7069C178.41 48.8854 178.172 48.9316 177.993 48.8126C177.828 48.7003 177.775 48.4822 177.868 48.3103C178.284 47.5238 178.72 46.7505 179.196 45.997C179.666 45.2369 180.181 44.5033 180.717 43.7829C181.258 43.069 181.833 42.3751 182.442 41.7075C182.746 41.3704 183.063 41.0466 183.393 40.7293C183.73 40.4054 184.041 40.108 184.451 39.7841L184.332 41.1325C183.169 39.8569 181.708 38.7927 180.155 37.8872C179.375 37.4312 178.568 37.0214 177.742 36.6447C176.916 36.2679 176.063 35.9176 175.217 35.6334L175.204 35.6268C174.999 35.5607 174.887 35.336 174.96 35.1311C175.026 34.9394 175.231 34.8337 175.422 34.8799Z" fill="#390075"/>
<path d="M200.75 88.7137C197.247 88.7137 193.764 88.3039 190.32 87.491C185.297 86.3013 180.446 83.7963 176.288 80.2536C174.874 79.0441 174.16 78.8194 173.863 78.7863C172.746 78.6806 171.212 78.5352 170.736 77.3455C170.419 76.5523 170.71 75.6997 171.113 74.7347C170.313 74.933 169.672 74.9066 169.19 74.662C168.714 74.4109 168.417 73.9681 168.344 73.4129C168.271 72.8312 168.516 72.1174 168.879 71.0467C169.19 70.1412 169.573 69.0176 169.752 67.9336C170.77 61.7604 171.113 60.227 171.159 60.042C171.265 59.5198 172.204 55.0783 173.731 51.681C172.845 49.0901 168.298 34.893 173.314 30.8811C175.898 28.8124 182.614 32.6392 187.994 36.3802C191.411 34.4965 195.799 33.201 199.607 32.9829C200.439 32.93 201.272 32.9168 202.078 32.9366C202.125 32.9366 202.164 32.9366 202.197 32.9366C205.383 33.0093 208.225 33.9016 210.638 34.7344C220.783 38.2506 226.243 47.3717 226.467 47.755C227.928 50.26 228.906 52.2428 229.646 54.2058C230.05 55.2766 230.38 56.3208 230.644 57.4114C230.644 57.4114 230.644 57.418 230.651 57.4312C230.724 57.7287 231.484 60.7888 232.693 67.048C232.905 68.1319 233.321 69.2423 233.652 70.1412C234.048 71.2053 234.313 71.9125 234.253 72.4941C234.2 73.056 233.91 73.5054 233.44 73.7632C232.964 74.0275 232.323 74.0672 231.524 73.8953C231.953 74.8471 232.27 75.6931 231.973 76.4995C231.715 77.2001 230.929 77.9866 228.635 77.7354C227.644 77.6231 226.791 78.8921 226.785 78.9053C226.613 79.1829 226.176 79.6786 225.833 80.0553L225.793 80.1016C222.911 83.0494 218.668 85.4354 213.843 86.83C209.488 88.0858 205.106 88.7137 200.75 88.7137ZM172.627 76.5325C172.845 76.625 173.327 76.711 174.054 76.7771C175.026 76.8696 176.156 77.4843 177.597 78.7136C181.51 82.0514 186.07 84.4044 190.783 85.5214C198.172 87.2729 205.747 87.0547 213.301 84.8736C217.789 83.5782 221.715 81.3838 224.352 78.6872C224.736 78.2642 225.033 77.9073 225.093 77.8147C225.152 77.7222 226.599 75.4684 228.873 75.7196C229.501 75.7857 229.878 75.746 230.069 75.6931C230.003 75.3891 229.746 74.8207 229.541 74.3844L229.481 74.2589C229.098 73.4195 228.926 72.8643 228.847 72.5404C228.748 72.1372 228.893 71.701 229.217 71.4366C229.534 71.1789 229.984 71.126 230.347 71.3044C231.127 71.6812 231.775 71.8795 232.165 71.9522C232.065 71.6415 231.907 71.2119 231.768 70.8418C231.405 69.8768 230.962 68.6739 230.717 67.4313C229.554 61.4233 228.8 58.3169 228.701 57.9402L228.695 57.9203C228.444 56.8826 228.139 55.9177 227.763 54.9196C227.062 53.069 226.13 51.1721 224.729 48.7729C224.676 48.6869 219.402 39.903 209.983 36.6379C207.604 35.8184 205.039 35.0186 202.138 34.9525H202.131H202.065C201.305 34.9327 200.519 34.9459 199.725 34.9988C196.004 35.2169 191.682 36.5388 188.45 38.4423L187.888 38.7728L187.353 38.396C180.3 33.4191 175.588 31.6412 174.57 32.4542C171.384 35.0054 173.77 46.0366 175.76 51.377L175.912 51.7735L175.727 52.1569C174.154 55.4682 173.142 60.3989 173.136 60.4451L173.122 60.498C173.109 60.5509 172.785 61.8992 171.741 68.2509C171.536 69.5067 171.12 70.7162 170.789 71.6944C170.664 72.0711 170.512 72.5008 170.426 72.818C170.816 72.7387 171.457 72.5206 172.224 72.124C172.587 71.9323 173.037 71.972 173.36 72.2232C173.691 72.4743 173.85 72.9039 173.757 73.3137C173.698 73.5781 173.545 74.1597 173.169 75.052L173.116 75.1776C172.931 75.6336 172.673 76.2417 172.627 76.5325Z" fill="#390075"/>
<path opacity="0.3" d="M219.111 106.658C217.227 108.826 213.606 109.315 211.253 108.271C209.243 107.379 208.166 106.526 207.373 105.528C206.381 104.272 205.839 102.792 204.511 100.697C203.863 99.6721 203.024 98.5088 201.847 97.1539C200.512 97.2729 199.131 97.3324 197.71 97.3324H197.697C187.346 97.3324 179.375 94.0078 173.684 90.2867C166.13 85.3428 161.246 77.0744 160.267 67.9005C160.01 65.4815 159.871 62.8112 159.963 59.989C160.01 61.5158 160.122 62.9831 160.267 64.3645C161.246 73.5384 166.13 81.8068 173.684 86.7506C179.375 90.4717 187.346 93.7963 197.697 93.7963H197.71C198.007 93.7963 198.305 93.7963 198.602 93.7831C197.042 92.3092 195.139 90.6634 192.779 88.8128C192.383 88.5021 191.92 88.1518 191.391 87.7883L198.054 89.0706C203.301 93.4658 205.793 96.5789 207.28 98.9186C208.609 101.014 209.144 102.494 210.142 103.75C210.935 104.748 212.013 105.601 214.022 106.493C215.476 107.147 217.399 107.213 219.111 106.658Z" fill="#390075"/>
<path d="M226.705 31.1587C215.7 17.1797 197.723 17.8406 197.723 17.8406C197.723 17.8406 179.738 17.1797 168.734 31.1587C160.069 42.1634 159.289 55.1113 160.28 64.3711C161.258 73.545 166.143 81.8134 173.697 86.7573C179.388 90.4784 187.359 93.8029 197.709 93.8029H197.723C208.073 93.8029 216.051 90.4718 221.741 86.7507C229.296 81.8068 234.187 73.5318 235.158 64.3645C236.15 55.1047 235.363 42.1568 226.705 31.1587ZM232.64 65.2502C231.821 72.3487 227.729 78.7466 221.411 82.5735C216.645 85.4486 209.97 88.0263 201.311 88.0263H201.298C192.64 88.0263 185.964 85.4486 181.206 82.5735C174.887 78.7466 170.802 72.3487 169.983 65.2568C169.157 58.0921 169.811 48.0722 177.061 39.5593C186.268 28.7462 201.311 29.2551 201.311 29.2551C201.311 29.2551 216.355 28.7462 225.561 39.5593C232.805 48.0722 233.46 58.0921 232.64 65.2502Z" fill="white"/>
<path d="M197.716 93.9682C188.879 93.9682 180.769 91.5888 173.598 86.8895C166.024 81.9324 161.106 73.7301 160.108 64.3843C159.143 55.3294 159.831 42.1964 168.595 31.0529C179.527 17.1731 197.531 17.6622 197.716 17.6754C197.881 17.6688 215.898 17.1731 226.824 31.0529C235.595 42.1898 236.282 55.3228 235.317 64.3777C234.319 73.7235 229.402 81.9258 221.821 86.8829C214.649 91.5822 206.533 93.9682 197.716 93.9682ZM197.425 17.9993C195.026 17.9993 178.919 18.4884 168.866 31.2578C160.161 42.3154 159.487 55.3558 160.445 64.3513C161.43 73.5979 166.295 81.7077 173.79 86.6185C180.908 91.2781 188.958 93.6377 197.709 93.6377C206.473 93.6377 214.53 91.2715 221.655 86.6119C229.15 81.7077 234.015 73.5913 235 64.3447C235.958 55.3492 235.277 42.3088 226.579 31.2578C215.753 17.5102 197.908 17.9993 197.729 18.0059C197.709 18.0059 197.61 17.9993 197.425 17.9993ZM201.311 88.1981C193.909 88.1981 187.121 86.3541 181.12 82.7189C174.775 78.8788 170.65 72.5205 169.817 65.2766C169.004 58.2574 169.58 48.0854 176.929 39.4535C186.083 28.7066 201.166 29.0833 201.311 29.0899C201.45 29.0833 216.533 28.7066 225.68 39.4535C233.024 48.0788 233.605 58.2508 232.799 65.27C231.966 72.5139 227.842 78.8722 221.49 82.7189C215.475 86.3475 208.688 88.1915 201.311 88.1981ZM201.067 29.4204C199.071 29.4204 185.588 29.7971 177.187 39.6716C169.917 48.211 169.348 58.2904 170.148 65.2369C170.974 72.3751 175.032 78.6475 181.291 82.4347C187.24 86.0368 193.975 87.861 201.298 87.8677C208.628 87.8677 215.363 86.0368 221.325 82.4347C227.591 78.6409 231.655 72.3751 232.475 65.2369C233.275 58.2838 232.7 48.2044 225.436 39.6716C216.388 29.0436 201.463 29.4204 201.318 29.427C201.305 29.4204 201.219 29.4204 201.067 29.4204Z" fill="#390075"/>
<g opacity="0.3">
<path opacity="0.3" d="M235.158 64.3646C234.18 73.5385 229.296 81.8069 221.735 86.7507C216.044 90.4719 208.066 93.7964 197.716 93.7964H197.703C187.352 93.7964 179.381 90.4719 173.691 86.7507C166.136 81.8069 161.252 73.5385 160.273 64.3712C159.883 60.7558 159.771 56.5786 160.287 52.1768C161.298 61.2978 166.169 69.5067 173.691 74.4308C179.381 78.1519 187.352 81.4764 197.703 81.4764H197.716C208.066 81.4764 216.044 78.1453 221.735 74.4241C229.25 69.5067 234.134 61.2978 235.145 52.1834C235.661 56.5853 235.548 60.7558 235.158 64.3646Z" fill="#390075"/>
</g>
<path d="M197.716 94.8142C188.714 94.8142 180.452 92.3819 173.135 87.6033C165.343 82.5074 160.293 74.0738 159.269 64.4835C158.284 55.2699 158.991 41.9056 167.934 30.5374C178.985 16.4989 196.546 16.7963 197.716 16.836C198.886 16.7963 216.447 16.5055 227.492 30.5374C236.434 41.899 237.141 55.2633 236.157 64.4768C235.132 74.0737 230.076 82.5008 222.283 87.6033C214.973 92.3819 206.705 94.8076 197.716 94.8142ZM197.405 18.8453C195.138 18.8453 179.342 19.3079 169.52 31.7799C160.994 42.6128 160.333 55.4219 161.278 64.2587C162.237 73.2476 166.962 81.1393 174.246 85.9047C181.225 90.4718 189.117 92.7851 197.703 92.7851C206.302 92.7851 214.2 90.4652 221.186 85.898C228.47 81.1326 233.195 73.241 234.154 64.2455C235.099 55.4021 234.431 42.593 225.905 31.7667C215.363 18.376 197.928 18.8254 197.749 18.832H197.716H197.676C197.67 18.8453 197.577 18.8453 197.405 18.8453Z" fill="#390075"/>
<path d="M201.311 89.0376C193.757 89.0376 186.817 87.1539 180.683 83.4394C174.107 79.4605 169.844 72.8775 168.978 65.3758C168.145 58.1914 168.74 47.7683 176.288 38.9116C185.574 28.006 200.3 28.2242 201.311 28.2506C202.323 28.2242 217.048 28.006 226.328 38.9116C233.869 47.7617 234.464 58.1847 233.645 65.3692C232.779 72.8709 228.509 79.4605 221.933 83.4394C215.779 87.1539 208.84 89.0376 201.311 89.0376ZM201.054 30.2665C199.177 30.2665 185.997 30.6234 177.828 40.2203C170.749 48.5284 170.201 58.3566 170.987 65.1445C171.78 72.0249 175.7 78.0659 181.734 81.7144C187.551 85.2372 194.134 87.0217 201.305 87.0217C208.483 87.0217 215.066 85.2306 220.895 81.7144C226.936 78.0593 230.856 72.0183 231.649 65.1379C232.429 58.35 231.873 48.5217 224.801 40.2203C216.011 29.8963 201.503 30.2665 201.351 30.2665H201.318H201.285C201.265 30.2665 201.186 30.2665 201.054 30.2665Z" fill="#390075"/>
<path d="M164.12 59.8238C164.12 62.3552 163.717 64.7148 163.023 66.7108C162.296 68.7928 161.245 70.4782 159.996 71.5357C159.077 72.3156 158.046 72.7519 156.962 72.7519C153.01 72.7519 149.811 66.9686 149.811 59.8304C149.811 52.6922 153.016 46.9089 156.962 46.9089C158.046 46.9089 159.077 47.3452 159.996 48.1251C161.245 49.176 162.296 50.8614 163.023 52.95C163.717 54.9328 164.12 57.2924 164.12 59.8238Z" fill="white"/>
<path d="M156.962 72.9104C152.924 72.9104 149.646 67.0413 149.646 59.8238C149.646 52.6062 152.93 46.7371 156.962 46.7371C158.066 46.7371 159.123 47.1601 160.102 47.9929C161.371 49.0636 162.435 50.7556 163.175 52.8904C163.902 54.9592 164.285 57.3584 164.285 59.8304C164.285 62.2957 163.902 64.6949 163.175 66.7703C162.428 68.9051 161.364 70.5971 160.102 71.6613C159.123 72.4874 158.066 72.9104 156.962 72.9104ZM156.962 47.0675C153.109 47.0675 149.976 52.7913 149.976 59.8238C149.976 66.8562 153.109 72.58 156.962 72.58C157.987 72.58 158.971 72.1834 159.89 71.4035C161.113 70.3724 162.144 68.7267 162.871 66.6513C163.585 64.6156 163.962 62.256 163.962 59.8238C163.962 57.3915 163.585 55.0319 162.871 52.9962C162.144 50.9208 161.113 49.2751 159.897 48.244C158.971 47.4641 157.987 47.0675 156.962 47.0675Z" fill="#390075"/>
<g opacity="0.3">
<g opacity="0.3">
<path opacity="0.3" d="M164.12 59.8236C164.12 62.355 163.717 64.7146 163.023 66.7106C162.296 68.7926 161.245 70.478 159.996 71.5355C159.077 72.3154 158.046 72.7517 156.962 72.7517C153.01 72.7517 149.811 66.9684 149.811 59.8302C149.811 59.0635 149.85 58.31 149.916 57.583C150.491 61.8593 153.433 65.1045 156.962 65.1045C158.046 65.1045 159.077 64.8005 159.996 64.2519C161.245 63.5117 162.296 62.3286 163.023 60.8613C163.512 59.8831 163.856 58.7793 164.014 57.5962C164.087 58.3167 164.12 59.0635 164.12 59.8236Z" fill="#390075"/>
</g>
</g>
<path d="M170.181 59.8238C170.181 66.962 166.975 72.7453 163.023 72.7453H156.962C158.046 72.7453 159.077 72.3091 159.996 71.5292C161.245 70.4783 162.296 68.7929 163.023 66.7043C163.717 64.7148 164.12 62.3553 164.12 59.8172C164.12 57.2792 163.717 54.9262 163.023 52.9302C162.296 50.8416 161.245 49.1562 159.996 48.1053C159.077 47.3254 158.046 46.8892 156.962 46.8892H163.023C166.975 46.9024 170.181 52.6856 170.181 59.8238Z" fill="white"/>
<path d="M163.023 72.9104H156.962V72.58C157.986 72.58 158.971 72.1834 159.89 71.4035C161.113 70.3724 162.144 68.7267 162.871 66.6513C163.585 64.6156 163.961 62.256 163.961 59.8238C163.961 57.3915 163.585 55.0319 162.871 52.9962C162.144 50.9208 161.113 49.2751 159.897 48.244C158.978 47.4641 157.993 47.0675 156.969 47.0675V46.7371H163.029C167.068 46.7371 170.353 52.6062 170.353 59.8238C170.346 67.0413 167.061 72.9104 163.023 72.9104ZM158.614 72.58H163.016C166.869 72.58 170.009 66.8562 170.009 59.8238C170.009 52.7913 166.869 47.0675 163.016 47.0675H158.614C159.123 47.279 159.619 47.5831 160.101 47.9929C161.37 49.0636 162.435 50.7556 163.175 52.8904C163.902 54.9592 164.285 57.3584 164.285 59.8304C164.285 62.2957 163.902 64.6949 163.175 66.7703C162.428 68.9051 161.364 70.5971 160.101 71.6613C159.626 72.0644 159.13 72.3685 158.614 72.58Z" fill="#390075"/>
<g opacity="0.3">
<g opacity="0.3">
<path opacity="0.3" d="M170.174 60.2997C170.035 67.2197 166.889 72.7452 163.023 72.7452H156.962C158.046 72.7452 159.077 72.309 159.996 71.5291C161.245 70.4782 162.296 68.7928 163.023 66.7042C163.426 65.5608 163.935 60.7028 164.113 59.3479L164.814 60.3129C166.123 62.1106 168.813 62.1371 170.135 60.3459C170.148 60.3327 170.161 60.3129 170.174 60.2997Z" fill="#390075"/>
</g>
</g>
<path d="M156.962 73.7565C152.382 73.7565 148.799 67.6362 148.799 59.8238C148.799 52.0115 152.388 45.8911 156.962 45.8911C158.251 45.8911 159.526 46.3934 160.65 47.3452C162.031 48.5085 163.181 50.3327 163.975 52.6063C164.728 54.7676 165.131 57.2594 165.131 59.8238C165.131 62.3883 164.735 64.88 163.975 67.0413C163.181 69.315 162.025 71.1326 160.643 72.3024C159.526 73.2542 158.251 73.7565 156.962 73.7565ZM156.962 47.9136C153.631 47.9136 150.815 53.3664 150.815 59.8238C150.815 66.2812 153.631 71.734 156.962 71.734C157.782 71.734 158.581 71.4036 159.341 70.7624C160.452 69.8239 161.39 68.3103 162.071 66.3804C162.752 64.4306 163.115 62.1636 163.115 59.8304C163.115 57.4907 162.758 55.2303 162.071 53.2805C161.397 51.3439 160.452 49.8303 159.348 48.8918C158.581 48.2375 157.782 47.9136 156.962 47.9136Z" fill="#390075"/>
<path d="M163.023 73.7565H156.962V71.734C157.781 71.734 158.581 71.4036 159.341 70.7624C160.452 69.8239 161.39 68.3103 162.071 66.3804C162.752 64.4306 163.115 62.1636 163.115 59.8304C163.115 57.4907 162.758 55.2303 162.071 53.2805C161.397 51.3439 160.452 49.8303 159.348 48.8918C158.581 48.2441 157.781 47.9136 156.969 47.9136V45.8911H163.029C167.61 45.8911 171.199 52.0115 171.199 59.8238C171.185 67.6362 167.603 73.7565 163.023 73.7565ZM161.251 71.734H163.023C166.354 71.734 169.17 66.2812 169.17 59.8238C169.17 53.3664 166.354 47.9136 163.023 47.9136H161.251C162.368 49.0703 163.3 50.6763 163.975 52.6063C164.728 54.7676 165.131 57.2594 165.131 59.8238C165.131 62.3883 164.735 64.88 163.975 67.0413C163.3 68.9779 162.362 70.5774 161.251 71.734Z" fill="#390075"/>
<path opacity="0.3" d="M185.746 113.321C180.796 111.12 181.629 108.958 178.41 104.385C177.484 103.069 176.222 101.549 174.378 99.7713C172.66 98.1123 170.445 96.222 167.531 94.0608C167.445 93.9947 167.359 93.9352 167.273 93.8691C166.751 93.4791 166.116 93.0495 165.396 92.5868C158.833 88.3502 144.893 81.4896 135.118 82.0448C135.118 82.0448 132.197 76.5457 131.985 69.2026C131.992 69.2357 132.005 69.2621 132.012 69.2952C132.798 72.0117 135.144 73.9945 137.953 74.325C147.213 75.3957 158.456 81.0468 164.153 84.7216C164.867 85.1843 165.502 85.6205 166.03 86.0038C166.116 86.0699 166.202 86.1294 166.288 86.1955C169.203 88.3568 171.424 90.2471 173.135 91.9061C174.973 93.684 176.235 95.1976 177.167 96.5129C180.379 101.08 180.822 105.713 185.779 107.914C188.483 109.117 194.424 108.185 193.189 102.726C193.228 102.798 193.268 102.871 193.307 102.944C194.015 104.259 194.61 105.951 194.814 108.04C195.323 113.175 189.091 114.808 185.746 113.321Z" fill="#390075"/>
<path d="M192.679 107.557C192.904 107.921 193.069 108.304 193.228 108.694C193.373 109.084 193.506 109.487 193.598 109.904C193.691 110.32 193.77 110.743 193.783 111.179C193.79 111.615 193.757 112.065 193.598 112.508C193.472 112.858 193.096 113.036 192.745 112.911C192.474 112.818 192.303 112.561 192.303 112.29V112.237C192.296 111.886 192.329 111.529 192.342 111.159L192.408 110.016C192.441 109.236 192.448 108.43 192.494 107.597C192.494 107.544 192.541 107.498 192.6 107.504C192.64 107.511 192.666 107.531 192.679 107.557Z" fill="#390075"/>
<path d="M188.568 108.886C188.78 109.276 188.906 109.686 188.998 110.109C189.084 110.532 189.137 110.968 189.137 111.404C189.137 111.84 189.117 112.283 189.011 112.713C188.919 113.142 188.767 113.559 188.549 113.935C188.364 114.253 187.954 114.358 187.636 114.173C187.385 114.028 187.266 113.744 187.319 113.479L187.326 113.44C187.399 113.063 187.524 112.713 187.623 112.349C187.736 111.992 187.848 111.629 187.954 111.265C188.152 110.525 188.304 109.752 188.383 108.932V108.926C188.39 108.873 188.436 108.833 188.489 108.84C188.529 108.84 188.555 108.859 188.568 108.886Z" fill="#390075"/>
<path opacity="0.3" d="M231.576 106.07C222.145 113.697 203.513 124.371 181.259 134.438C159.005 144.497 138.681 151.437 126.724 153.486C125.482 151.457 124.351 149.322 123.347 147.095C123.301 146.989 123.248 146.89 123.208 146.777C122.772 145.793 122.362 144.808 121.985 143.81C121.1 141.483 120.366 139.13 119.798 136.764C119.771 136.665 119.751 136.573 119.725 136.48C118.892 132.964 118.403 129.414 118.244 125.885C117.934 119.17 118.806 112.501 120.749 106.176C122.197 101.47 124.239 96.9489 126.83 92.7453C127.537 91.6019 128.277 90.4849 129.064 89.3877C128.37 91.0731 127.749 92.7916 127.213 94.5365C125.27 100.862 124.398 107.524 124.708 114.246C124.867 117.775 125.363 121.325 126.189 124.841C126.209 124.94 126.235 125.032 126.262 125.125C126.83 127.491 127.564 129.844 128.449 132.171C128.826 133.169 129.236 134.153 129.672 135.138C129.718 135.244 129.765 135.35 129.811 135.456C129.824 135.475 129.831 135.502 129.844 135.522C131.595 139.382 135.892 141.411 140.009 140.386C152.138 137.346 169.269 131.153 187.729 122.805C204.537 115.204 219.276 107.253 229.547 100.525C230.321 102.349 230.995 104.206 231.576 106.07Z" fill="#390075"/>
<g opacity="0.3">
<g opacity="0.3">
<path opacity="0.3" d="M190.412 157.042C182.983 160.4 175.666 163.394 168.594 165.998C167.642 166.348 167.649 167.697 168.601 168.034C168.607 168.034 168.621 168.04 168.627 168.04C182.216 172.819 197.596 172.574 211.754 166.17C214.338 165 216.79 163.665 219.11 162.184C213.935 167.895 207.53 172.654 200.062 176.031C185.904 182.436 170.524 182.68 156.935 177.902C153.954 176.851 151.053 175.562 148.277 174.035C147.708 173.724 147.147 173.407 146.585 173.07C146.307 172.905 146.03 172.74 145.752 172.568C145.554 172.449 145.355 172.323 145.164 172.198C145.111 172.171 145.065 172.138 145.012 172.105C144.767 171.953 144.529 171.794 144.285 171.636C144.271 171.629 144.265 171.623 144.252 171.616C144.014 171.464 143.782 171.305 143.551 171.147C143.28 170.962 143.009 170.777 142.745 170.591C142.487 170.413 142.236 170.235 141.985 170.049C142.718 169.864 143.459 169.673 144.199 169.474C144.509 169.395 144.82 169.316 145.131 169.23C145.567 169.111 146.01 168.992 146.453 168.873C146.829 168.774 147.213 168.668 147.589 168.556C148.35 168.344 149.116 168.126 149.89 167.901C150.16 167.822 150.431 167.743 150.702 167.663C151.482 167.432 152.262 167.201 153.055 166.956C153.432 166.844 153.802 166.725 154.186 166.606C154.338 166.56 154.496 166.507 154.655 166.461C155.422 166.216 156.195 165.971 156.975 165.72C157.2 165.648 157.418 165.575 157.642 165.502C157.973 165.396 158.303 165.291 158.634 165.178C159.288 164.967 159.942 164.742 160.603 164.517C169.87 161.385 179.665 157.525 189.659 153.004C206.671 145.31 221.853 136.778 233.935 128.463C233.783 130.148 233.552 131.827 233.248 133.486C221.404 141.483 206.751 149.653 190.412 157.042Z" fill="#390075"/>
</g>
</g>
<path opacity="0.3" d="M188.356 153.579C171.8 160.981 155.838 166.553 141.978 170.036C117.959 176.077 100.246 175.866 96.7496 168.126C93.5705 161.1 102.791 149.375 119.784 136.758C120.352 139.124 121.086 141.477 121.971 143.803C117.272 147.643 114.959 150.697 115.765 152.468C116.585 154.279 120.53 154.53 126.717 153.473C130.339 152.852 134.727 151.781 139.704 150.314C139.79 151.047 139.975 151.748 140.273 152.402C143.776 160.142 161.483 160.347 185.508 154.306C186.453 154.081 187.398 153.836 188.356 153.579Z" fill="#390075"/>
</svg>
