<svg width="27" height="27" viewBox="0 0 27 27" fill="none" xmlns="http://www.w3.org/2000/svg">
<circle cx="13.3004" cy="13.3005" r="12.7739" fill="#FF7A00"/>
<circle cx="13.3004" cy="13.3005" r="12.7739" fill="url(#paint0_linear)"/>
<path d="M13.5805 11.7426C14.2859 11.4006 14.9566 10.9699 15.5928 10.4506C16.2289 9.93124 16.5747 9.4309 16.63 8.94957L16.63 7.35357C16.63 6.9989 16.7683 6.70123 17.0449 6.46057C17.3076 6.20723 17.6326 6.08057 18.0199 6.08057C18.4071 6.08057 18.7321 6.2009 18.9948 6.44157C19.2714 6.6949 19.4097 6.9989 19.4097 7.35357L19.4097 8.94957L19.389 8.94957L19.389 9.13957C19.3337 10.0516 18.7736 10.9952 17.7087 11.9706C17.1693 12.4519 16.5608 12.8952 15.8832 13.3006C16.5608 13.7059 17.1693 14.1556 17.7087 14.6496C18.7736 15.6122 19.3337 16.5496 19.389 17.4616L19.389 17.6516L19.4097 17.6516L19.4097 19.2476C19.4097 19.6022 19.2714 19.8999 18.9948 20.1406C18.7321 20.3939 18.4071 20.5206 18.0199 20.5206C17.6326 20.5206 17.3076 20.3939 17.0449 20.1406C16.7683 19.8999 16.63 19.6022 16.63 19.2476L16.63 17.6516C16.5747 17.1702 16.2289 16.6699 15.5928 16.1506C14.9566 15.6312 14.2859 15.2006 13.5805 14.8586C13.4284 14.7826 13.2832 14.7066 13.1449 14.6306C13.1034 14.6559 13.0619 14.6812 13.0204 14.7066C12.3013 15.0486 11.6237 15.4792 10.9875 15.9986C10.3513 16.5179 10.0125 17.0182 9.97101 17.4996L9.97101 19.0956C9.97101 19.4502 9.83271 19.7479 9.55612 19.9886C9.29336 20.2419 8.96836 20.3686 8.58113 20.3686C8.1939 20.3686 7.86199 20.2419 7.5854 19.9886C7.32264 19.7479 7.19126 19.4502 7.19126 19.0956L7.19126 17.3096C7.24657 16.3976 7.79976 15.4602 8.85081 14.4976C9.33485 14.0669 9.86037 13.6679 10.4274 13.3006C9.86037 12.9332 9.33485 12.5342 8.85081 12.1036C7.79976 11.1409 7.24658 10.2036 7.19126 9.29157L7.19126 7.50557C7.19126 7.1509 7.32264 6.8469 7.5854 6.59357C7.86199 6.3529 8.1939 6.23257 8.58113 6.23257C8.96836 6.23257 9.29336 6.35923 9.55612 6.61257C9.83272 6.85323 9.97101 7.1509 9.97101 7.50557L9.97101 9.10157C10.0125 9.5829 10.3513 10.0832 10.9875 10.6026C11.6237 11.1219 12.3013 11.5526 13.0204 11.8946C13.0619 11.9199 13.1034 11.9452 13.1449 11.9706C13.2832 11.8946 13.4284 11.8186 13.5805 11.7426Z" fill="white"/>
<defs>
<linearGradient id="paint0_linear" x1="22.742" y1="3.78872" x2="4.41425" y2="22.1164" gradientUnits="userSpaceOnUse">
<stop stop-color="white" stop-opacity="0.24"/>
<stop offset="1" stop-color="white" stop-opacity="0"/>
</linearGradient>
</defs>
</svg>
