<svg width="1130" height="27" viewBox="0 0 1130 27" fill="none" xmlns="http://www.w3.org/2000/svg">
<path d="M576.1 0.850002C572 0.183336 568.917 0.96667 566.85 3.2C564.783 5.43333 563.75 8.73333 563.75 13.1V26.45H576.1V13.6H569.7C569.433 11.3333 569.733 9.46667 570.6 8C571.5 6.53333 573.1 5.88333 575.4 6.05L576.1 0.850002ZM559.35 0.850002C555.25 0.183336 552.167 0.96667 550.1 3.2C548.033 5.43333 547 8.73333 547 13.1V26.45H559.35V13.6H552.95C552.683 11.3333 552.983 9.46667 553.85 8C554.75 6.53333 556.35 5.88333 558.65 6.05L559.35 0.850002Z" fill="#20222E"/>
<path d="M0 15.5H514" stroke="#DEE0EC"/>
<path d="M616 15.5H1130" stroke="#DEE0EC"/>
</svg>
